<svg width="740" height="524" viewBox="0 0 740 524" fill="none" xmlns="http://www.w3.org/2000/svg">
<path d="M575.846 37.1091H445.746C440.924 37.1091 437.015 41.0184 437.015 45.8407V141.888C437.015 146.71 440.924 150.619 445.746 150.619H575.846C580.669 150.619 584.578 146.71 584.578 141.888V45.8407C584.578 41.0184 580.669 37.1091 575.846 37.1091Z" fill="#F2F6FB"/>
<path d="M459.889 127.283L481.917 93.7673C484.008 90.5851 488.591 90.2572 491.104 93.109L499.992 103.165C504.047 107.746 511.4 107.044 514.5 101.787L535.694 65.7983C537.816 62.1931 542.883 61.9449 545.381 65.3118L567.862 95.9714C568.386 96.6856 569.388 96.8389 570.1 96.3139C570.813 95.7889 570.966 94.7844 570.442 94.0702L547.955 63.4033C544.089 58.1937 536.225 58.5789 532.937 64.1668L511.744 100.154C509.749 103.535 505.002 103.989 502.388 101.036L493.502 90.982C489.593 86.5467 482.494 87.0547 479.244 92.0013L457.216 125.517C456.729 126.257 456.933 127.252 457.672 127.74C458.41 128.228 459.403 128.023 459.889 127.283Z" fill="#E1E5F0"/>
<path d="M468.885 115.603C471.537 115.603 473.687 113.448 473.687 110.789C473.687 108.13 471.537 105.974 468.885 105.974C466.233 105.974 464.083 108.13 464.083 110.789C464.083 113.448 466.233 115.603 468.885 115.603Z" fill="#10B981"/>
<path d="M522.438 89.6332C525.091 89.6332 527.241 87.4776 527.241 84.8185C527.241 82.1594 525.091 80.0038 522.438 80.0038C519.786 80.0038 517.636 82.1594 517.636 84.8185C517.636 87.4776 519.786 89.6332 522.438 89.6332Z" fill="#FFCB3D"/>
<path d="M300.802 37.1091H158.041C156.594 37.1091 155.422 38.2819 155.422 39.7286V148C155.422 149.447 156.594 150.619 158.041 150.619H300.802C302.249 150.619 303.422 149.447 303.422 148V39.7286C303.422 38.2819 302.249 37.1091 300.802 37.1091Z" fill="#F2F6FB"/>
<path d="M273.405 98.0953H278.559C280.505 98.0953 281.21 98.2979 281.922 98.6784C282.633 99.0589 283.192 99.6172 283.572 100.329C283.953 101.04 284.155 101.746 284.155 103.692V150.619H267.808V103.692C267.808 101.746 268.011 101.04 268.391 100.329C268.772 99.6172 269.33 99.0589 270.042 98.6784C270.753 98.2979 271.459 98.0953 273.405 98.0953Z" fill="#D8DEED"/>
<path d="M254.723 110.643H260.168C262.115 110.643 262.82 110.845 263.532 111.226C264.243 111.606 264.802 112.165 265.182 112.876C265.563 113.588 265.765 114.293 265.765 116.24V150.619H249.126V116.24C249.126 114.293 249.329 113.588 249.709 112.876C250.09 112.165 250.648 111.606 251.36 111.226C252.071 110.845 252.777 110.643 254.723 110.643Z" fill="#D8DEED"/>
<path d="M236.332 71.5416H241.486C243.432 71.5416 244.138 71.7442 244.849 72.1247C245.561 72.5052 246.119 73.0635 246.499 73.775C246.88 74.4865 247.082 75.1922 247.082 77.1382V150.619H230.735V77.1382C230.735 75.1922 230.938 74.4865 231.318 73.775C231.699 73.0635 232.257 72.5052 232.969 72.1247C233.68 71.7442 234.386 71.5416 236.332 71.5416Z" fill="#E1E5F0"/>
<path d="M217.65 81.7547H222.803C224.75 81.7547 225.455 81.9573 226.167 82.3378C226.878 82.7183 227.437 83.2766 227.817 83.9881C228.197 84.6995 228.4 85.4052 228.4 87.3513V150.62H212.053V87.3513C212.053 85.4052 212.256 84.6995 212.636 83.9881C213.017 83.2766 213.575 82.7183 214.286 82.3378C214.998 81.9573 215.704 81.7547 217.65 81.7547Z" fill="#D8DEED"/>
<path d="M199.259 105.682H204.413C206.359 105.682 207.065 105.885 207.776 106.265C208.488 106.646 209.046 107.204 209.427 107.916C209.807 108.627 210.01 109.333 210.01 111.279V150.619H193.663V111.279C193.663 109.333 193.865 108.627 194.246 107.916C194.626 107.204 195.185 106.646 195.896 106.265C196.607 105.885 197.313 105.682 199.259 105.682Z" fill="#D8DEED"/>
<path d="M180.577 93.7181H185.731C187.677 93.7181 188.382 93.9207 189.094 94.3012C189.805 94.6817 190.364 95.2401 190.744 95.9515C191.125 96.663 191.327 97.3687 191.327 99.3148V150.619H174.98V99.3148C174.98 97.3687 175.183 96.663 175.563 95.9515C175.944 95.2401 176.502 94.6817 177.214 94.3012C177.925 93.9207 178.631 93.7181 180.577 93.7181Z" fill="#D8DEED"/>
<path d="M675.255 381.4V381.482C675.255 382.53 674.338 383.403 673.29 383.403H640.328L651.942 404.708C660.237 419.901 668.488 435.05 676.739 450.243L690.404 475.302C690.885 476.176 690.492 477.311 689.575 477.835L689.4 477.922C688.483 478.446 687.305 478.14 686.868 477.311L635.745 383.403H601.692L550.568 477.311C550.132 478.14 548.953 478.402 548.036 477.922L547.862 477.835C546.945 477.311 546.552 476.176 547.032 475.302L560.697 450.243C568.992 435.05 577.243 419.901 585.495 404.708L597.108 383.403H553.406C552.315 383.403 551.442 382.53 551.442 381.482V381.263C551.442 380.216 552.358 379.343 553.406 379.343H583.093C602.434 379.343 621.818 379.343 641.202 379.343H671.4L675.08 349.568C677.613 329.311 680.101 309.01 682.633 288.709L686.781 255.18C686.912 254.001 687.916 253.128 689.007 253.259L689.226 253.302C690.273 253.433 691.016 254.525 690.885 255.616L675.299 381.176C675.287 381.253 675.273 381.327 675.255 381.4Z" fill="#D8DEED"/>
<path d="M252.539 308.883C252.104 309.652 251.279 310.171 250.334 310.171H187.598C186.201 310.171 185.109 309.036 185.109 307.639C185.109 306.242 186.244 305.107 187.598 305.107H248.62L269.893 247.872C270.373 246.562 271.814 245.907 273.123 246.387C274.433 246.868 275.088 248.308 274.608 249.618L252.735 308.469C252.681 308.615 252.616 308.754 252.539 308.883Z" fill="#474961"/>
<path d="M75.6589 380.964V381.045C75.6589 382.093 76.5757 382.966 77.6235 382.966H110.586L98.9721 404.271C90.6771 419.464 82.4258 434.613 74.1745 449.806L60.5096 474.866C60.0294 475.739 60.4223 476.874 61.3391 477.398L61.5137 477.485C62.4305 478.009 63.6093 477.704 64.0459 476.874L115.169 382.966H149.222L200.346 476.874C200.782 477.704 201.961 477.965 202.878 477.485L203.052 477.398C203.969 476.874 204.362 475.739 203.882 474.866L190.217 449.806C181.922 434.613 173.671 419.464 165.419 404.271L153.806 382.966H197.508C198.599 382.966 199.472 382.093 199.472 381.045V380.827C199.472 379.779 198.556 378.906 197.508 378.906H167.821C148.48 378.906 129.096 378.906 109.712 378.906H79.5135L75.8335 349.131C73.3013 328.874 70.8129 308.573 68.2807 288.272L64.1332 254.743C64.0022 253.564 62.9981 252.691 61.9066 252.822L61.6884 252.866C60.6406 252.997 59.8984 254.088 60.0294 255.18L75.6152 380.74C75.6265 380.816 75.6411 380.891 75.6589 380.964Z" fill="#D8DEED"/>
<path d="M340.27 383.228H305.736C304.688 383.228 303.771 382.355 303.771 381.307V381.089C303.771 380.041 304.688 379.168 305.823 379.168H337.824C357.208 379.168 376.592 379.168 395.933 379.168H425.62C426.668 379.168 427.585 380.041 427.585 381.089V381.307C427.585 382.355 426.712 383.228 425.62 383.228H383.49L395.103 404.533C403.355 419.726 411.606 434.875 419.901 450.068L433.566 475.128C434.046 476.001 433.653 477.136 432.736 477.66L432.562 477.747C431.645 478.228 430.466 477.966 430.03 477.136L378.906 383.228H344.853L293.73 477.136C293.293 477.966 292.115 478.271 291.198 477.747L291.023 477.66C290.106 477.136 289.713 476.001 290.194 475.128L303.858 450.068C312.11 434.875 320.361 419.726 328.656 404.533L340.27 383.228ZM303.902 366.12V340.736C303.902 321.376 303.902 302.06 303.902 282.745V259.677C303.902 256.06 306.834 253.128 310.451 253.128H381.7C385.317 253.128 388.249 256.06 388.249 259.677V366.195C388.249 369.812 385.317 372.744 381.7 372.744C381.698 372.744 381.696 372.743 381.693 372.743L310.444 372.668C306.83 372.665 303.902 369.734 303.902 366.12Z" fill="#D8DEED"/>
<path d="M444.305 478.053H374.933C373.842 478.053 372.969 477.18 372.969 476.089C372.969 474.997 373.842 474.124 374.933 474.124H444.305C445.397 474.124 446.27 474.997 446.27 476.089C446.27 477.18 445.397 478.053 444.305 478.053ZM317.174 478.053C316.082 478.053 315.209 477.298 315.209 476.391V475.786C315.209 474.88 316.126 474.124 317.174 474.124H361.923C363.015 474.124 363.888 474.88 363.888 475.786V476.391C363.888 477.298 362.971 478.053 361.923 478.053H317.174Z" fill="#A339FF"/>
<path d="M444.993 474.245C444.779 474.166 444.548 474.124 444.306 474.124H374.933C374.617 474.124 374.319 474.197 374.056 474.327C374.002 474.138 373.973 473.938 373.973 473.731L375.501 449.588C375.414 448.278 376.418 447.274 377.684 447.23L405.494 447.056C405.974 447.056 406.411 447.187 406.804 447.492C411.781 452.818 416.539 455.787 419.988 457.534C422.651 458.887 431.558 462.642 435.574 464.475C437.626 465.392 439.591 466.483 441.511 467.662C441.642 467.749 441.73 467.793 441.861 467.924C442.865 468.841 444.393 470.5 444.96 472.465C445.048 472.726 445.048 472.945 445.091 473.207C445.135 473.425 445.091 473.643 445.091 473.862V473.905C445.067 474.023 445.034 474.136 444.993 474.245ZM362.175 474.137C362.092 474.128 362.009 474.124 361.923 474.124H317.174C317.172 474.124 317.17 474.124 317.169 474.124L327.303 447.099L358.562 451.334L362.175 474.137Z" fill="#474961"/>
<path d="M373.288 371.754C371.778 372.85 370.462 373.803 369.338 374.614L368.777 383.884C368.515 388.786 368.21 393.091 367.86 396.885C367.599 399.869 364.237 433.672 363.014 446.076C362.753 448.89 360.875 451.277 358.299 452.044C354.414 453.238 325.25 451.874 324.159 451.362C322.762 450.723 322.02 450.424 321.278 449.7C318.658 447.227 318.833 443.306 318.789 441.856C318.527 430.901 317.741 397.951 317.741 374.89C317.741 374.814 317.741 374.738 317.741 374.663C314.863 372.192 312.318 368.476 310.326 363.861C307.297 356.89 305.449 347.824 305.397 337.982C305.397 337.861 305.397 331.938 305.397 320.214C305.397 320.168 305.397 320.168 305.397 320.122C305.449 316.888 308.529 314.336 312.174 314.336H352.476C358.072 314.518 363.617 314.701 369.213 314.883C377.923 315.113 390.315 315.451 406.389 315.897C412.674 316.072 418.352 319.696 421.156 325.323C422.492 328.004 423.304 330.208 423.592 331.935C425.32 334.988 426.276 338.555 426.187 342.354C426.187 342.439 426.187 342.482 426.187 342.567C425.489 377.571 417.325 427.436 416.757 444.299C416.714 444.938 416.539 446.343 415.622 447.833C412.784 452.39 406.148 451.368 390.65 451.751C377.465 452.092 372.139 453.114 369.432 449.366C367.948 447.322 367.991 444.98 368.035 443.916C369.26 419.676 371.118 395.176 373.288 371.754Z" fill="#474BFF"/>
<path opacity="0.176986" d="M373.274 371.916C371.76 373.014 370.445 373.966 369.329 374.771L371.004 347.097C371.048 345.179 371.266 333.584 362.578 326.21C356.248 320.882 348.564 320.541 343.456 320.327C335.598 319.986 329.486 322.203 328.307 322.629C326.823 323.183 326.08 323.482 325.338 323.865C316.869 328.299 317.524 349.612 317.611 353.491C317.697 358.318 317.741 365.79 317.742 374.483C314.948 372.013 312.478 368.365 310.534 363.862C307.505 356.891 305.656 347.824 305.605 337.983C305.605 337.861 305.605 331.938 305.605 320.214C305.605 320.168 305.605 320.168 305.605 320.123C305.656 316.888 308.737 314.336 312.382 314.336H352.684C358.28 314.519 363.824 314.701 369.42 314.883C378.13 315.113 390.522 315.452 406.596 315.898C412.882 316.072 418.559 319.696 421.363 325.324C422.834 328.275 423.67 330.649 423.87 332.444C420.543 326.147 413.986 321.897 406.455 322.042C402.787 322.127 399.164 322.212 395.496 322.297C385.673 322.553 377.509 330.175 376.462 340.14C375.353 350.412 374.28 361.048 373.274 371.916Z" fill="#444444"/>
<path d="M362.217 223.952C365.633 224.014 371.008 224.662 376.318 227.747C377.233 228.27 378.584 229.141 380.066 230.404C381.33 231.493 385.035 235.108 388.565 245.299C389.829 248.87 393.534 255.838 395.67 259.671C396.367 260.934 395.539 262.502 394.057 262.633C389.386 262.968 383.624 264.885 378.179 264.896C378.627 273.043 378.943 282.76 379.064 293.598C379.064 293.598 379.761 306.497 375.751 310.678C375.057 311.414 362.036 310.648 348.205 311.088C333.373 311.559 317.573 313.087 313.897 309.233C307.952 303.001 311.351 301.313 316.807 265.811C315.952 265.899 315.156 265.977 314.448 266.042C308.937 266.565 297.394 266.216 291.84 265.998C290.365 265.954 289.41 264.296 290.017 262.899C291.84 258.664 295.051 251.025 296.006 247.14C298.74 236.053 302.168 231.993 303.339 230.771C304.684 229.374 306.034 228.424 306.854 227.759C309.601 225.531 318.265 223.923 332.846 222.936C339.13 220.796 346.306 221.41 350.951 221.824C354.199 222.119 358.294 222.484 362.217 223.952Z" fill="#A339FF"/>
<path opacity="0.176986" d="M362.36 223.964C365.792 224.077 370.939 224.799 376.026 227.758C376.943 228.281 378.297 229.155 379.781 230.421C381.047 231.512 384.758 235.136 388.294 245.352C389.56 248.932 393.533 255.822 395.672 259.664C396.371 260.93 395.541 262.502 394.057 262.633C392.693 262.731 391.157 263.015 389.696 263.256C389.118 263.352 387.52 263.538 386.809 263.688C383.368 264.414 381.363 264.896 378.156 264.896C378.139 264.896 378.123 264.896 378.107 264.896C377.415 252.333 376.411 243.498 375.326 240.033C374.584 237.675 373.508 234.969 373.508 234.969C372.984 233.441 372.139 231.869 370.437 229.73C368.142 226.879 365.305 225.104 362.36 223.964ZM352.084 228.619C351.298 233.247 349.857 234.614 349.857 234.614C346.539 232.693 334.708 226.699 335.799 223.424C335.887 223.206 336.061 222.769 337.196 222.071C341.475 219.451 346.714 220.717 348.547 221.241C348.547 221.241 356.973 220.281 358.589 225.214C360.204 230.148 358.283 233.64 358.283 233.64C356.886 232.796 354.819 231.123 352.084 228.619Z" fill="#444444"/>
<path d="M379.009 300.083L378.156 264.895L389.723 263.256L393.258 306.404C393.561 306.561 393.856 306.717 394.141 306.87C396.643 308.211 398.716 310.652 400.362 314.193C400.445 314.371 400.486 314.567 400.483 314.764C400.473 315.487 399.878 316.065 399.155 316.054L307.218 314.723C285.27 310.372 291.24 280.601 295.537 266.136C301.569 266.325 310.09 266.476 314.598 266.05C318.858 265.663 326.256 264.809 330.606 264.158L322.806 287.53C343.754 288.57 364.325 294.405 379.009 300.083ZM354.524 218.4L354.327 226.453C345.975 229.533 340.05 224.794 340.05 224.794C340.05 224.794 340.364 218.792 340.991 206.788C340.89 206.57 340.791 206.341 340.696 206.098C339.91 204.133 337.081 197.683 337.693 195.456C337.805 194.986 335.472 187.989 338.888 184.459C342.132 181.107 351.127 181.202 351.489 181.223C353.017 181.267 354.545 181.223 356.204 180.874C356.379 180.874 356.553 180.83 356.728 180.83C358.212 180.699 366.551 180.307 370.829 186.506C371.222 187.03 371.571 187.597 371.877 188.296C372.532 189.911 372.837 191.658 372.707 193.404L372.095 201.175C372.008 201.961 371.877 202.747 371.702 203.489C370.436 208.99 368.384 213.486 366.202 216.324C364.586 218.463 362.84 219.686 361.312 219.73C360.875 219.773 358.518 219.73 355.767 218.9C355.588 218.84 355.634 218.883 354.524 218.4Z" fill="#F2A98A"/>
<path d="M331.701 264.085C331.557 264.417 331.171 264.569 330.84 264.424C330.508 264.28 330.356 263.894 330.5 263.563C331.345 261.619 331.685 260.533 332.34 257.695C332.421 257.343 332.773 257.123 333.125 257.205C333.478 257.286 333.698 257.638 333.616 257.99C332.945 260.9 332.582 262.061 331.701 264.085ZM323.268 286.616C323.628 286.582 323.948 286.847 323.982 287.207C324.016 287.567 323.751 287.886 323.391 287.92C323.306 287.928 323.14 287.947 322.904 287.978C322.506 288.032 322.063 288.102 321.585 288.191C320.22 288.445 318.856 288.8 317.589 289.269C316.841 289.546 316.149 289.856 315.525 290.199C315.208 290.374 314.81 290.258 314.636 289.941C314.461 289.624 314.577 289.226 314.894 289.052C315.578 288.676 316.328 288.34 317.134 288.041C318.478 287.543 319.912 287.17 321.345 286.903C321.846 286.81 322.311 286.736 322.73 286.68C322.877 286.661 323.009 286.644 323.122 286.632C323.192 286.624 323.241 286.619 323.268 286.616Z" fill="#482D1F"/>
<path opacity="0.2" d="M393.183 306.449C389.579 304.565 384.716 302.35 378.931 300.108L378.077 264.895L389.644 263.256L393.183 306.449Z" fill="#8C2A00"/>
<path d="M354.536 218.412L354.414 222.873L348.386 215.64C348.472 215.682 348.56 215.725 348.651 215.769C349.524 216.206 350.616 216.686 352.013 217.297C353.237 217.843 354.022 218.189 354.536 218.412Z" fill="#482D1F"/>
<path d="M349.694 197.649L349.655 196.809C349.655 196.809 349.481 195.238 348.389 193.666C348.302 193.579 347.56 192.618 346.425 192.138C344.373 191.352 341.666 192.269 340.182 194.146C338.61 196.067 338.61 198.643 339.439 200.608C340.269 202.572 341.884 203.489 342.452 203.751L344.984 204.537L344.995 204.532C342.782 207.777 340.855 210.605 340.855 210.605C340.855 210.605 337.213 207.244 335.598 204.58C334.812 203.271 332.018 200.084 331.537 195.063C331.406 193.404 330.882 187.772 334.637 183.625C335.947 182.184 337.431 181.485 338.042 181.18C341.491 179.652 344.023 180.569 350.659 180.7C351.183 180.7 352.057 180.743 353.192 180.7C355.244 180.656 356.684 180.569 357.077 180.569C360.351 180.438 367.468 181.442 370.611 186.288C370.786 186.637 371.004 186.943 371.179 187.205C370.262 187.51 369.258 188.078 368.035 188.296C364.717 188.82 361.88 188.165 360.177 187.554C356.859 190.697 353.497 193.797 350.179 196.94C350.028 197.162 349.865 197.399 349.694 197.649Z" fill="#DE6903"/>
<path d="M369.575 202.54C369.706 202.017 370.229 201.624 370.753 201.711C371.103 201.755 371.365 202.017 371.496 202.628C371.626 204.156 369.967 206.077 369.487 205.16C369.182 204.549 369.444 203.283 369.575 202.54ZM360.351 201.35C360.482 200.826 361.006 200.433 361.53 200.52C361.879 200.564 362.141 200.826 362.272 201.437C362.403 202.965 360.744 204.886 360.264 203.969C359.915 203.358 360.177 202.092 360.351 201.35Z" fill="#482D1F"/>
<path d="M366.594 202.838L366.638 207.204C366.638 207.221 366.572 207.287 366.551 207.287C366.312 207.287 366.068 207.271 365.687 207.235C365.613 207.227 365.536 207.22 365.424 207.208C365.284 207.194 365.207 207.186 365.133 207.179C364.881 207.153 364.673 207.134 364.449 207.114C364.209 207.093 363.998 207.271 363.977 207.511C363.956 207.751 364.134 207.963 364.374 207.984C364.592 208.003 364.797 208.023 365.046 208.048C365.119 208.055 365.195 208.063 365.336 208.077C365.449 208.088 365.527 208.096 365.603 208.104C366.009 208.143 366.278 208.16 366.551 208.16C367.054 208.16 367.511 207.703 367.511 207.2L367.468 202.83C367.465 202.589 367.268 202.395 367.027 202.397C366.786 202.4 366.592 202.597 366.594 202.838Z" fill="#482D1F"/>
<path d="M363.538 210.474C363.233 210.343 362.491 209.994 362.447 209.557C362.447 209.47 362.403 209.339 362.491 209.295C362.709 209.077 363.233 209.295 364.019 209.514C365.416 209.863 366.551 209.95 366.551 209.95C366.551 209.95 366.114 210.649 365.852 210.823C365.328 211.304 363.975 210.692 363.538 210.474Z" fill="#482D1F"/>
<path d="M365.476 203.316C364.78 205.978 362.358 207.942 359.478 207.942C356.054 207.942 353.279 205.166 353.279 201.742C353.279 200.983 353.415 200.256 353.665 199.584L350.204 198.093C349.859 197.986 349.666 197.619 349.773 197.274C349.88 196.928 350.247 196.735 350.593 196.843L354.246 198.416C355.346 196.689 357.278 195.543 359.478 195.543C362.902 195.543 365.678 198.319 365.678 201.742C365.678 201.835 365.676 201.928 365.672 202.02L367.033 202.161C367.625 199.353 370.116 197.246 373.099 197.246C376.523 197.246 379.299 200.021 379.299 203.445C379.299 206.869 376.523 209.644 373.099 209.644C369.682 209.644 366.91 206.879 366.9 203.464L365.476 203.316ZM355.045 199.677C354.752 200.305 354.589 201.004 354.589 201.742C354.589 204.443 356.778 206.632 359.478 206.632C362.179 206.632 364.368 204.443 364.368 201.742C364.368 199.042 362.179 196.853 359.478 196.853C357.624 196.853 356.011 197.885 355.182 199.406C355.179 199.42 355.175 199.434 355.17 199.448C355.143 199.535 355.1 199.612 355.045 199.677ZM368.224 203.073C368.214 203.196 368.21 203.32 368.21 203.445C368.21 206.146 370.399 208.335 373.099 208.335C375.8 208.335 377.989 206.146 377.989 203.445C377.989 200.745 375.8 198.555 373.099 198.555C370.613 198.555 368.561 200.411 368.25 202.812C368.255 202.856 368.255 202.9 368.25 202.945C368.245 202.989 368.236 203.032 368.224 203.073Z" fill="#482D1F"/>
<path d="M146.686 477.66C146.643 477.633 146.6 477.604 146.559 477.572L102.726 444.916C101.853 444.262 101.679 442.995 102.333 442.122C102.988 441.249 104.254 441.075 105.128 441.729L148.491 474.036H172.099C173.19 474.036 174.107 474.953 174.107 476.044C174.107 477.136 173.19 478.053 172.099 478.053H147.869C147.425 478.053 147.017 477.908 146.686 477.66ZM286.264 478.053H216.892C215.8 478.053 214.927 477.18 214.927 476.088C214.927 474.997 215.8 474.124 216.892 474.124H286.264C287.355 474.124 288.228 474.997 288.228 476.088C288.228 477.18 287.355 478.053 286.264 478.053Z" fill="#DE3190"/>
<path d="M286.705 474.282C286.5 474.21 286.28 474.171 286.049 474.171H216.677C216.494 474.171 216.317 474.195 216.149 474.242C216.009 473.956 215.931 473.636 215.931 473.294L215.276 449.152C215.189 447.842 216.193 446.838 217.459 446.794L247.452 446.62C247.932 446.62 248.369 446.751 248.762 447.056C253.739 452.382 258.498 455.351 261.947 457.097C264.61 458.451 273.516 462.205 277.532 464.039C279.584 464.956 281.549 466.047 283.47 467.226C283.601 467.313 283.688 467.357 283.819 467.488C284.823 468.405 286.351 470.064 286.919 472.028C287.006 472.29 287.006 472.509 287.05 472.771C287.093 472.989 287.05 473.207 287.05 473.425V473.469C286.987 473.768 286.868 474.042 286.705 474.282ZM172.767 474.295C172.499 474.16 172.199 474.084 171.884 474.084H148.276L105.077 441.899L121.368 418.81L147.65 437.888C149.091 442.778 150.576 447.667 152.06 452.601C152.846 455.176 153.632 457.709 154.417 460.241C156.862 461.201 158.958 462.074 160.442 462.729C163.28 463.952 165.681 465.087 168.301 466.789C168.301 466.789 170.571 468.186 171.837 470.195C172.23 470.85 172.579 471.592 172.797 472.378C172.885 472.727 172.885 473.076 172.928 473.382C172.915 473.668 172.85 473.989 172.767 474.295Z" fill="#474961"/>
<path d="M228.045 315.817L239.969 315.661C243.549 315.442 248.046 317.669 251.407 320.201C252.106 320.725 252.717 321.293 253.285 321.904C253.808 322.471 254.332 323.083 254.769 323.737C256.69 326.488 257.694 329.762 257.65 333.124C257.563 340.415 256.69 346.09 256.122 347.968C252.411 359.45 242.894 402.54 252.455 421.182C252.455 421.182 257.301 430.568 256.253 437.597C255.85 440.422 254.298 443.726 253.812 444.71C253.823 444.725 253.834 444.74 253.845 444.754C250.197 450.018 204.871 457.752 170.047 446.314C165.29 444.751 158.347 442.952 150.401 439.416C150.052 439.285 149.702 439.11 149.397 438.892C144.027 435.443 138.657 432.038 133.287 428.589L119.797 419.944C117.221 418.285 116.479 414.967 118.138 412.566L129.096 396.588L135.645 387.026C137.478 384.32 139.399 381.526 141.364 378.688C142.299 378.718 140.61 378.645 136.299 378.47C121.27 377.858 101.679 374.977 94.2569 363.058C90.5023 356.99 89.8475 350.616 89.5419 347.691C87.8392 330.621 96.3558 321.827 99.1466 319.051C101.007 317.201 105.691 314.231 113.2 310.143L162.081 313.026L209.252 314.773C209.331 314.733 219.126 314.012 228.045 315.817Z" fill="#FFCB3D"/>
<path opacity="0.2" d="M227.893 315.819L239.969 315.661C243.549 315.442 248.046 317.669 251.407 320.201C252.106 320.725 252.717 321.292 253.285 321.904C253.808 322.471 254.332 323.082 254.769 323.737C256.69 326.488 257.694 329.762 257.65 333.124C257.563 340.415 256.69 346.09 256.122 347.967C252.411 359.449 242.894 402.54 252.455 421.182C252.455 421.182 257.301 430.568 256.253 437.597C255.843 440.466 254.249 443.829 253.79 444.754C249.855 439.492 234.284 415.474 240.454 374.412C240.629 373.364 244.458 350.73 244.458 344.487C244.458 321.94 238.998 318.731 229.527 316.216C228.989 316.073 228.443 315.941 227.893 315.819Z" fill="#8C2A00"/>
<path d="M161.416 349.523C159.262 352.781 156.994 355.947 151.486 363.482C145.959 371.042 143.684 374.217 141.508 377.508C141.242 377.91 141.353 378.452 141.755 378.718C142.157 378.984 142.699 378.873 142.965 378.471C145.119 375.213 147.388 372.047 152.896 364.512C158.422 356.952 160.698 353.777 162.873 350.486C163.139 350.084 163.028 349.542 162.626 349.276C162.224 349.01 161.682 349.121 161.416 349.523Z" fill="#482D1F"/>
<path d="M139.337 230.555C142.743 230.325 147.115 230.956 150.881 234.58C154.549 238.073 152.802 241.129 158.303 250.472C161.054 255.099 163.673 258.155 162.713 261.037C162.363 262.114 161.33 263.118 159.613 264.049C155.8 264.544 153.457 264.835 152.584 264.922C152.349 264.944 152.08 264.97 151.803 264.998L151.1 277.314L151.056 277.751L149.833 299.449L149.572 303.684C149.572 304.033 149.528 304.339 149.484 304.688C149.441 305.081 149.397 305.43 149.353 305.823C149.222 306.827 149.004 307.788 148.742 308.748C148.611 309.141 148.524 309.534 148.349 309.927L103.731 309.577L98.9516 264.999C95.4139 264.877 91.6516 264.748 87.6647 264.61C85.5401 263.824 84.2594 262.907 83.8229 261.859C82.6441 259.022 85.9621 255.704 89.4111 250.727C96.3526 240.773 94.2134 237.848 98.7538 233.962C104.771 228.81 110.908 228.042 115.066 228.323C115.159 228.296 115.251 228.269 115.344 228.243C117.527 227.632 119.884 227.37 122.285 227.501L131.89 228.112C134.538 228.253 137.044 229.137 139.337 230.555Z" fill="#DE3190"/>
<path opacity="0.176986" d="M139.179 230.567C142.607 230.306 147.057 230.899 150.881 234.58C154.549 238.073 152.802 241.129 158.303 250.472C161.054 255.099 163.673 258.156 162.713 261.037C162.363 262.114 161.33 263.118 159.613 264.049C155.8 264.544 153.457 264.835 152.584 264.923C152.294 264.949 151.952 264.983 151.607 265.018L152.259 253.598C151.517 245.346 147.107 236.484 140.733 231.638C140.227 231.254 139.709 230.896 139.179 230.567Z" fill="#444444"/>
<path d="M150.148 290.409L150.862 277.74L150.906 277.304L151.611 264.945L158.859 264.057L161.115 291.348C165.925 291.741 170.766 292.113 175.635 292.464C180.918 292.857 186.2 293.206 191.396 293.511C192.113 293.093 198.096 292.542 204.989 293.511C207.108 293.809 210.217 294.679 214.316 296.121C222.087 298.396 227.302 300.012 229.96 300.968C233.946 302.402 229.96 305.081 224.401 305.081C223.283 305.081 207.351 305.667 202.722 306.318C202.8 306.307 202.882 306.296 202.967 306.285L205.695 307.027C207.1 307.371 208.442 307.892 209.756 308.632C210.928 309.29 212.1 309.948 213.272 310.606C213.593 310.814 213.883 311.153 214.038 311.584C214.535 312.878 214.387 315.214 213.272 315.209L145.584 313.129C146.72 313.045 147.854 312.957 148.987 312.866C138.585 313.631 128.161 314.105 116.348 314.031C109.45 313.987 107.704 313.769 105.608 312.677C96.6146 308.006 94.8683 294.472 93.4276 282.641C92.8338 278.055 92.3895 272.023 92.6788 264.847C106.559 265.326 117.421 265.695 125.265 265.954C125.262 266.308 125.259 266.646 125.254 266.968C125.21 271.508 125.08 275.699 125.472 281.898C125.647 284.474 125.691 286.614 125.778 288.011C133.807 288.874 141.932 289.673 150.148 290.409ZM135.778 225.727L135.184 228.03C137.227 228.797 139 230.231 140.927 231.692C140.665 232.827 140.185 233.613 139.618 234.18C136.169 237.629 125.138 234.704 114.441 228.156C115.322 227.909 117.699 226.94 121.936 226.824C122.278 226.815 122.678 226.815 123.136 226.823C124.156 224.714 125.135 222.808 126.205 220.449C126.189 220.44 126.177 220.433 126.171 220.428L127.262 212.483C127.219 212.002 127.35 212.395 126.913 212.221C125.822 211.828 124.861 211.086 124.119 210.125C122.853 208.379 122.591 205.934 123.464 203.751C124.468 201.699 126.869 200.215 128.965 200.564C129.751 200.695 130.449 201.044 131.104 201.568L131.148 201.612C131.366 201.83 131.672 201.917 131.934 201.961C132.676 202.005 133.331 201.524 133.418 200.782L134.641 189.431C134.684 188.689 134.247 188.369 134.99 188.413C136.066 188.5 137.847 188.5 140.331 188.413C140.549 188.413 142.233 188.413 142.408 188.413C143.451 188.587 151.449 188.165 155.509 194.714C155.858 195.369 156.208 195.98 156.469 196.635C157.124 198.25 157.343 200.04 157.124 201.83L156.077 209.732C155.946 210.518 155.771 211.304 155.553 212.09C152.759 221.738 147.825 228.199 144.071 228.156C142.15 228.068 140.229 227.719 138.439 227.021C138.204 226.903 138.355 226.996 135.778 225.727Z" fill="#DB9E75"/>
<path opacity="0.2" d="M149.936 290.639L150.658 277.813L150.702 277.376L151.409 264.997L158.859 264.057L160.948 291.582C157.259 291.28 153.588 290.966 149.936 290.639ZM202.952 306.335L205.43 307.003C206.834 307.347 208.223 307.802 209.537 308.542C210.709 309.2 212.1 309.948 213.272 310.606C213.593 310.814 213.883 311.153 214.037 311.584C214.535 312.878 214.387 315.214 213.272 315.209L145.416 313.199C154.523 312.525 163.501 311.607 173.258 310.679C176.271 310.417 201.053 306.968 202.451 306.401C202.605 306.378 202.772 306.356 202.952 306.335Z" fill="#8C2A00"/>
<path d="M120.256 289.099C119.896 289.135 119.575 288.873 119.538 288.513C119.502 288.153 119.764 287.832 120.124 287.796L125.712 287.228C126.072 287.191 126.393 287.454 126.43 287.813C126.466 288.173 126.204 288.495 125.844 288.531L120.256 289.099ZM125.1 266.216C124.743 266.155 124.504 265.816 124.565 265.46C124.626 265.103 124.965 264.864 125.321 264.925C125.336 264.927 125.376 264.933 125.438 264.939C126.003 264.994 126.657 264.937 127.259 264.689C128.356 264.237 129.043 263.245 129.141 261.431C129.267 259.092 129.171 257.232 128.936 255.818C128.881 255.484 128.822 255.204 128.764 254.978C128.731 254.85 128.707 254.773 128.697 254.744C128.576 254.403 128.755 254.028 129.096 253.908C129.437 253.787 129.811 253.965 129.932 254.306C130.012 254.532 130.122 254.96 130.228 255.604C130.479 257.113 130.58 259.069 130.448 261.502C130.323 263.814 129.327 265.254 127.758 265.9C126.928 266.242 126.071 266.316 125.312 266.243C125.217 266.233 125.145 266.224 125.1 266.216Z" fill="#482D1F"/>
<path d="M135.95 225.536L131.453 223.572L134.64 230.077L135.95 225.536Z" fill="#482D1F"/>
<path d="M134.274 208.694L133.069 204.406C132.676 203.358 132.021 202.441 131.191 201.699C130.537 201.175 129.838 200.826 129.052 200.695C126.957 200.346 124.555 201.83 123.551 203.882C122.591 205.934 122.809 208.379 124.206 210.125C125.063 211.282 126.257 212.103 127.663 212.463C127.056 215.846 126.171 220.516 126.171 220.516C126.171 220.516 125.098 220.018 122.953 219.022C117.757 216.117 114.934 210.698 114.483 202.765C106.026 206.024 97.9436 203.749 94.7808 198.905C92.3796 195.194 92.9079 190.249 93.0782 189.562C94.7808 182.692 100.631 181.66 100.631 181.66C100.631 181.66 109.057 177.338 118.05 190.523C118.084 190.573 118.118 190.623 118.152 190.674C119.132 189.662 120.342 188.924 121.63 188.383C125.254 186.899 127.83 187.947 134.728 188.252C136.125 188.34 138.22 188.383 140.84 188.296C141.058 188.296 141.233 188.296 141.407 188.296C142.979 188.252 151.477 188.208 155.537 194.757C155.494 194.888 155.433 195.01 155.334 195.194C155.334 195.194 146.904 209.752 134.274 208.694ZM150.968 207.375C150.095 207.462 148.655 207.506 147.519 207.025C145.555 206.283 147.65 205.366 149.484 205.541C150.357 205.585 150.968 206.065 151.361 206.458C151.623 206.807 151.405 207.331 150.968 207.375ZM158.347 208.291C157.43 208.466 156.076 208.641 154.854 208.248C152.802 207.68 154.767 206.545 156.644 206.589C157.604 206.632 158.216 206.982 158.652 207.375C158.958 207.68 158.783 208.204 158.347 208.291Z" fill="#482D1F"/>
<path d="M154.417 212.832C154.112 212.264 154.417 211.086 154.636 210.344C154.767 209.82 155.334 209.514 155.814 209.601C156.12 209.689 156.469 209.907 156.469 210.518C156.557 212.003 154.81 213.793 154.417 212.832ZM147.258 211.828C146.908 211.26 147.258 210.082 147.476 209.339C147.607 208.816 148.174 208.51 148.655 208.597C148.96 208.685 149.309 208.903 149.309 209.514C149.397 210.998 147.694 212.788 147.258 211.828Z" fill="#482D1F"/>
<path d="M154.443 209.464C154.512 209.233 154.38 208.99 154.149 208.921C153.918 208.852 153.675 208.983 153.606 209.214L152.864 211.703L152.851 211.759L152.109 216.386C152.106 216.403 152.069 216.427 151.991 216.416C151.537 216.308 151.011 216.177 150.45 216.033C150.217 215.972 149.979 216.113 149.918 216.346C149.858 216.58 149.998 216.818 150.232 216.878C150.799 217.024 151.331 217.156 151.829 217.273C152.395 217.356 152.886 217.037 152.971 216.527L153.709 211.925L154.443 209.464Z" fill="#482D1F"/>
<path d="M135.95 225.754L132.545 224.052L134.029 232.085L135.95 225.754Z" fill="#482D1F"/>
<path d="M148.96 220.297C148.655 220.21 147.913 219.948 147.825 219.424C147.825 219.337 147.782 219.206 147.825 219.119C147.956 218.9 149.353 219.119 149.353 219.119C151.1 219.424 151.58 219.38 151.667 219.642C151.711 219.773 151.667 219.948 151.274 220.297C150.794 220.952 149.397 220.472 148.96 220.297Z" fill="#482D1F"/>
<path d="M536.314 474.56H596.54C597.632 474.56 598.505 475.433 598.505 476.525C598.505 477.616 597.632 478.489 596.54 478.489H527.168H476.088C474.997 478.489 474.124 477.616 474.124 476.525C474.124 475.433 474.997 474.56 476.088 474.56H536.314Z" fill="#FF5645"/>
<path d="M476.525 474.56H476.088C475.962 474.56 475.839 474.572 475.719 474.594C475.596 474.386 475.505 474.154 475.453 473.905V473.861C475.453 473.643 475.409 473.425 475.453 473.207C475.497 472.945 475.497 472.726 475.584 472.464C475.876 471.452 476.63 470.265 477.845 468.904C478.535 468.132 479.345 467.476 480.244 466.962C482.249 465.816 483.824 464.987 484.97 464.475C488.987 462.641 497.893 458.887 500.556 457.533C504.005 455.787 508.764 452.818 513.741 447.492C514.134 447.187 514.57 447.056 515.051 447.056L540.091 447.23C541.357 447.23 542.361 448.278 542.273 449.588L544.379 461.413C546.595 460.454 548.589 459.531 551.049 458.101C553.101 456.922 555.982 455.001 559.213 452.12C561.003 450.548 562.836 448.977 564.626 447.405L591.651 447.056L597.21 474.602C597.306 474.622 597.399 474.648 597.488 474.681L597.515 474.816C597.238 474.658 596.917 474.566 596.573 474.56C596.562 474.56 596.551 474.56 596.54 474.56H536.314H526.3H476.525Z" fill="#474961"/>
<path opacity="0.176986" d="M536.445 474.56H536.314H476.088C475.962 474.56 475.839 474.572 475.719 474.594C475.596 474.386 475.505 474.154 475.453 473.905V473.861C475.453 473.643 475.409 473.425 475.453 473.207C475.497 472.945 475.497 472.726 475.584 472.464C475.876 471.452 476.63 470.265 477.845 468.904C478.535 468.132 479.345 467.476 480.244 466.962C482.249 465.816 483.824 464.987 484.97 464.475C488.987 462.641 497.893 458.887 500.556 457.533C504.005 455.787 508.764 452.818 513.741 447.492C514.134 447.187 514.57 447.056 515.051 447.056L540.091 447.23C541.357 447.23 542.361 448.278 542.273 449.588L544.397 461.518C542.075 462.518 539.486 463.577 535.856 465.305C533.76 466.309 531.752 467.444 529.787 468.71C528.827 469.583 527.168 471.373 526.644 473.469C526.557 473.818 526.557 474.167 526.513 474.473C526.513 474.502 526.529 474.531 526.562 474.56H536.576H536.445ZM597.515 474.816C597.238 474.658 596.917 474.566 596.573 474.56L596.802 474.56C597.044 474.56 597.275 474.603 597.488 474.681L597.515 474.816Z" fill="#444444"/>
<path d="M534.638 316.154C535.39 316.035 536.101 315.997 536.773 316.038L616.623 315.733L653.208 315.646C654.692 315.733 660.954 317.649 662.395 319.289C663.792 320.031 672.723 329.267 671.239 346.424C670.977 349.306 670.409 355.723 666.742 361.836C662.9 368.21 656.439 372.881 648.537 375.544C641.551 377.902 633.387 378.731 624.918 377.814C607.018 374.584 589.162 371.397 571.262 368.166V368.821L571.35 369.126C571.35 369.126 573.533 373.23 575.41 377.465C577.287 381.656 579.907 401.477 579.907 401.608C584.185 408.418 588.507 417.63 591.825 429.243C593.135 433.915 593.833 437.582 594.095 438.979C594.623 441.975 595.041 445.593 595.352 449.833C595.356 449.897 595.359 449.961 595.359 450.024C595.359 451.471 594.186 452.644 592.739 452.644C592.315 452.644 591.981 452.644 591.738 452.644L552.926 452.6L540.989 452.541C540.591 452.646 540.173 452.702 539.743 452.702L507.873 452.572H505.297C502.765 452.572 500.625 450.563 500.494 448.031C500.189 442.923 499.796 436.2 499.316 428.429C498.006 408.826 497.307 402.583 496.521 387.478C496.391 384.946 496.26 382.675 496.172 380.536C495.823 370.364 494.906 360.846 493.116 348.404C492.112 341.506 491.632 337.228 491.588 333.604C491.544 330.242 492.549 326.924 494.47 324.174C495.43 322.82 496.521 321.642 497.831 320.638C501.193 318.062 503.601 316.309 512.035 316.185C518.708 316.086 526.428 316.116 534.638 316.154Z" fill="#10B981"/>
<path opacity="0.176986" d="M534.872 316.12C534.765 316.135 534.656 316.151 534.546 316.169C531.49 316.693 528.041 318.483 525.378 320.535C524.068 321.539 522.933 322.718 522.016 324.072C520.095 326.778 519.091 330.009 519.091 333.327V333.545C519.135 337.169 519.615 341.447 520.576 348.345C522.366 360.788 523.282 370.262 523.632 380.477C523.719 382.573 523.85 384.887 523.981 387.419C524.723 402.481 525.465 408.724 526.775 428.37C527.299 436.141 527.692 442.821 527.954 447.972C528.085 450.505 530.224 452.513 532.756 452.513H535.332L540.848 452.54C540.492 452.623 540.122 452.667 539.743 452.667L507.873 452.536H505.297C502.765 452.536 500.625 450.527 500.494 447.995C500.189 442.887 499.796 436.164 499.316 428.393C498.006 408.791 497.307 402.547 496.521 387.442C496.391 384.91 496.26 382.64 496.172 380.5C495.823 370.328 494.906 360.811 493.116 348.368C492.112 341.47 491.632 337.192 491.588 333.568C491.544 330.206 492.549 326.888 494.47 324.138C495.43 322.785 496.521 321.606 497.831 320.602C501.193 318.026 503.601 316.274 512.035 316.149C518.772 316.049 526.575 316.081 534.872 316.12L534.872 316.12Z" fill="#444444"/>
<path d="M571.045 367.194C570.504 366.662 569.939 366.105 569.349 365.521C569.19 365.363 569.19 365.363 569.03 365.205C567.367 363.556 566.005 362.198 563.366 359.559C563.025 359.218 562.472 359.218 562.131 359.559C561.79 359.9 561.79 360.453 562.131 360.794C564.772 363.435 566.135 364.794 567.801 366.445C567.961 366.604 567.961 366.604 568.121 366.762C568.712 367.347 569.278 367.905 569.82 368.439C570.164 368.777 570.717 368.773 571.055 368.429C571.393 368.085 571.389 367.532 571.045 367.194Z" fill="#482D1F"/>
<path d="M628.357 225.562C630.929 224.689 633.73 224.279 636.639 224.433C648.209 225 657.115 234.212 656.547 244.996C656.269 250.268 653.76 254.94 649.914 258.259L659.582 293.599C661.066 299.187 660.543 304.862 658.36 309.752C658.054 310.451 657.705 311.149 657.356 311.804C656.963 312.502 656.526 313.201 656.089 313.856C655.609 314.554 655.085 315.253 654.518 315.908H606.974C606.581 315.253 606.189 314.598 605.839 313.856C605.49 313.201 605.184 312.502 604.922 311.804C604.661 311.149 604.442 310.451 604.224 309.752C604.18 309.621 604.137 309.49 604.093 309.359L591.733 266.276L582.714 267.27C581.928 267.357 581.186 266.833 581.098 266.091L580.705 263.035C580.689 262.898 580.696 262.764 580.721 262.637C579.239 261.736 577.881 260.655 576.733 259.411C575.074 257.621 573.808 255.526 573.065 253.125C570.097 243.607 576.689 233.435 587.778 230.466C592.241 229.271 596.761 229.413 600.763 230.63C602.459 229.451 604.318 228.544 606.32 227.981L615.881 225.143C620.283 224.49 624.517 224.642 628.357 225.562Z" fill="#FF5645"/>
<path opacity="0.176986" d="M591.668 266.284L582.714 267.27C581.928 267.357 581.186 266.833 581.098 266.091L580.705 263.035C580.689 262.898 580.696 262.764 580.721 262.637C579.239 261.736 577.881 260.655 576.733 259.411C575.074 257.621 573.808 255.526 573.065 253.125C570.097 243.607 576.689 233.435 587.778 230.466C592.266 229.265 596.811 229.415 600.829 230.65C591.796 236.841 587.315 250.719 590.3 261.517L591.668 266.284Z" fill="#444444"/>
<path d="M584.098 232.39C584.098 232.39 583.268 235.708 587.677 234.792C592.087 233.875 593.353 233.438 593.353 233.438L592.218 230.426L584.098 232.39Z" fill="#482D1F"/>
<path d="M599.3 223.723C599.156 223.761 599.013 223.798 598.872 223.832L599.32 223.767L599.3 223.723ZM610.985 216.68L612.082 216.237L617.365 225.362L608.656 228.089L617.19 268.626C617.19 268.626 617.916 265.701 618.845 260.425C618.889 260.44 618.934 260.452 618.98 260.462L643.123 265.832C643.225 265.855 643.326 265.867 643.427 265.868C642.582 269.24 641.682 273.294 640.722 277.489C638.233 288.316 637.84 293.337 633.868 300.497C629.327 308.661 625.136 308.879 623.477 309.49C619.766 310.931 616.055 310.713 613.741 310.145C610.965 309.473 605.88 308.39 601.564 300.544L604.093 309.359C604.137 309.49 604.18 309.621 604.224 309.752C604.442 310.451 604.66 311.149 604.922 311.804C605.184 312.503 605.49 313.201 605.839 313.856C606.188 314.598 606.581 315.253 606.974 315.908H612.567L540.107 315.999C539.905 316 539.718 315.931 539.569 315.815C527.552 308.553 521.6 303.01 521.713 299.185C525.348 298.631 530.536 297.872 537.277 296.907C541.466 296.307 545.719 296.319 549.904 296.943L563.063 298.904C572.908 295.749 586.046 291.604 589.326 290.89L583.693 267.162L591.733 266.276L595.513 279.453C593.305 263.851 593.876 247.593 591.88 231.941L587.285 232.041C584.578 233.133 578.902 234.966 578.291 231.081C578.291 231.081 585.8 227.981 591.083 225.711L591.476 225.362C591.825 225.056 592.131 224.881 592.567 224.75C592.655 224.707 592.742 224.707 592.829 224.707L594.925 224.401L595.218 224.359C594.522 224.393 594.037 224.375 593.862 224.357C590.215 224.095 585.961 217.416 584.05 207.767C583.877 206.982 583.833 206.196 583.746 205.41L583.399 197.595C583.312 195.849 583.66 194.103 584.484 192.575C584.832 191.92 585.179 191.308 585.57 190.828C590.042 184.803 598.291 185.458 599.767 185.633C599.94 185.633 600.114 185.677 600.288 185.677C601.938 186.07 603.414 186.2 604.977 186.157C605.671 186.157 606.236 186.724 606.279 187.423L606.496 198.599C606.54 199.647 611.836 197.639 611.836 197.595C614.378 195.674 617.567 206.021 616.265 207.549C615.31 208.597 612.618 210.081 611.836 210.343C611.359 210.518 611.011 210.911 610.925 211.347C611.222 213.558 611.242 215.336 610.985 216.68Z" fill="#DB9E75"/>
<path opacity="0.2" d="M583.692 267.198L591.732 266.313L604.092 309.396C604.136 309.527 604.179 309.658 604.223 309.788C604.441 310.487 604.659 311.186 604.921 311.84C605.183 312.539 605.489 313.237 605.838 313.892C606.187 314.634 606.58 315.289 606.973 315.944H612.566L540.107 316.036C539.904 316.036 539.717 315.967 539.568 315.851C527.551 308.589 521.599 303.046 521.712 299.221C525.347 298.668 530.535 297.909 537.276 296.943C541.465 296.343 545.718 296.355 549.903 296.979L563.062 298.941C572.907 295.785 586.045 291.641 589.325 290.927L583.692 267.198Z" fill="#8C2A00"/>
<path d="M519.737 305.15C524.423 299.383 534.067 294.713 550.21 305.469C552.671 307.054 551.838 312.25 549.13 312.309L521.22 312.779C519.123 312.849 518.175 307.09 519.737 305.15Z" fill="#474961"/>
<path d="M624.397 196.125C629.996 199.802 635.343 205.204 634.391 208.772C633.649 211.653 630.855 213.181 628.017 214.753C625.725 216.01 621.493 217.955 615.399 218.363C615.4 218.367 615.4 218.372 615.4 218.376C613.96 218.595 612.562 218.813 611.122 219.031C610.38 219.119 609.681 218.595 609.637 217.852C609.856 216.281 610.074 214.709 610.292 213.137C610.488 212.353 610.695 211.363 610.821 210.301C611.518 210.133 613.072 209.683 614.265 208.291C615.575 206.763 616.273 204.449 615.4 202.223C614.614 200.084 612.432 198.425 610.336 198.599C609.157 198.687 608.24 199.342 608.109 199.429C607.162 200.146 606.374 201.128 605.945 201.716C603.89 200.919 600.702 199.216 598.068 195.849C597.457 195.092 596.744 193.972 595.929 192.487C591.58 193.474 587.928 193.226 584.971 191.745C585.617 190.515 586.623 189.403 587.991 188.409C590.042 186.917 590.268 186.737 592.857 186.01C594.477 185.555 597.541 185.41 599.734 185.633H599.814C602.303 185.895 604.355 185.982 605.708 185.982C612.344 186.113 614.92 185.24 618.282 186.899C618.893 187.205 620.334 187.99 621.6 189.475C623.394 191.572 624.128 194.001 624.397 196.125ZM584.85 211.138C586.503 217.035 588.26 219.206 588.036 219.206C587.812 219.206 587.231 219.511 582.734 218.245C580.507 217.634 578.412 217.023 577.451 215.233C576.098 212.701 580.131 207.469 583.711 203.977C583.711 206.562 584.139 208.512 584.85 211.138ZM582.22 202.485C581.784 202.398 581.609 201.874 581.915 201.568C582.308 201.219 582.963 200.782 583.836 200.739C585.626 200.651 587.59 201.699 585.669 202.31C584.447 202.747 583.05 202.616 582.22 202.485ZM590.69 202.485C590.253 202.398 590.079 201.874 590.428 201.568C590.821 201.219 591.476 200.782 592.393 200.739C594.183 200.651 596.147 201.743 594.226 202.31C592.916 202.747 591.563 202.616 590.69 202.485Z" fill="#482D1F"/>
<path d="M585.495 205.846C585.582 206.589 585.669 207.811 585.276 208.335C584.709 209.121 583.355 207.113 583.661 205.715C583.792 205.104 584.098 204.93 584.447 204.93C584.971 204.93 585.407 205.323 585.495 205.846ZM593.266 205.584C593.397 206.327 593.484 207.549 593.047 208.073C592.48 208.859 591.127 206.851 591.432 205.454C591.563 204.842 591.869 204.668 592.218 204.668C592.742 204.668 593.178 205.061 593.266 205.584Z" fill="#482D1F"/>
<path d="M616.693 268.856C616.591 268.509 616.789 268.145 617.135 268.042C617.482 267.94 617.847 268.138 617.949 268.485L622.271 283.11C622.374 283.457 622.176 283.821 621.829 283.924C621.482 284.026 621.118 283.828 621.015 283.481L616.693 268.856ZM646.26 261.33C646.271 261.407 646.268 261.487 646.25 261.568L645.508 264.839C645.256 265.977 644.121 266.681 642.981 266.428C642.628 266.35 642.405 266 642.484 265.647C642.562 265.294 642.912 265.071 643.265 265.15C643.705 265.247 644.135 264.98 644.23 264.553L644.868 261.74C644.752 261.678 644.652 261.581 644.589 261.454C644.427 261.13 644.558 260.737 644.882 260.575C646.746 259.643 648.48 258.415 649.957 256.98C650.217 256.728 650.631 256.734 650.883 256.994C651.135 257.253 651.129 257.668 650.87 257.92C649.508 259.243 647.943 260.4 646.26 261.33ZM619.283 255.499C619.281 255.528 619.276 255.557 619.269 255.587L618.528 258.858C618.43 259.299 618.697 259.729 619.122 259.823C619.475 259.902 619.698 260.252 619.619 260.605C619.541 260.958 619.191 261.18 618.838 261.102C617.7 260.849 616.996 259.714 617.25 258.571L617.992 255.297C618.021 255.17 618.085 255.06 618.171 254.975C617.657 254.353 617.269 253.807 616.945 253.253C616.655 252.755 616.412 252.245 616.154 251.607C615.979 251.172 615.871 250.881 615.483 249.816C615.36 249.476 615.535 249.1 615.875 248.976C616.215 248.853 616.59 249.028 616.714 249.368C617.095 250.416 617.201 250.702 617.369 251.117C617.604 251.7 617.821 252.154 618.076 252.592C618.419 253.179 618.85 253.765 619.476 254.49C619.712 254.764 619.682 255.177 619.408 255.414C619.369 255.447 619.327 255.476 619.283 255.499ZM602.34 222.967C600.725 223.709 599.628 225.022 597.108 225.274C595.099 225.755 593.397 225.187 592.523 224.75C592.611 224.707 592.698 224.707 592.785 224.707L594.881 224.401C595.885 224.401 597.499 224.227 599.376 223.703L602.34 222.967Z" fill="#482D1F"/>
<path d="M591.039 214.403C591.345 214.316 592.087 214.054 592.218 213.574C592.218 213.487 592.261 213.356 592.218 213.268C592.043 213.006 591.476 213.137 590.69 213.225C589.293 213.356 588.158 213.225 588.158 213.225C588.158 213.225 588.507 214.098 588.725 214.316C589.205 215.015 590.602 214.578 591.039 214.403Z" fill="#482D1F"/>
<path d="M587.765 206.211L587.768 206.147L587.764 206.179L587.765 206.211ZM587.244 210.819L587.241 210.867C587.241 211.344 587.567 211.786 588.042 211.865C588.13 211.874 588.178 211.877 588.227 211.881C588.689 211.911 589.02 211.915 590.21 211.915C590.451 211.915 590.646 211.72 590.646 211.479C590.646 211.237 590.451 211.042 590.21 211.042C589.041 211.042 588.719 211.038 588.284 211.009C588.238 211.006 588.193 211.003 588.148 211C588.157 211 588.121 210.949 588.115 210.885L588.635 206.245L588.638 206.181L588.55 203.605C588.542 203.364 588.34 203.176 588.099 203.184C587.858 203.192 587.67 203.394 587.678 203.635L587.764 206.179L587.244 210.819Z" fill="#482D1F"/>
<path d="M659.233 309.97H101.722C100.035 309.97 98.6664 311.339 98.6664 313.027C98.6664 314.714 100.035 316.083 101.722 316.083H659.233C660.92 316.083 662.289 314.714 662.289 313.027C662.289 311.339 660.92 309.97 659.233 309.97Z" fill="#D8DEED"/>
<path d="M448.485 303.422L452.684 286.482H421.167C417.893 286.482 415.186 283.994 415.186 280.981V233.001C415.143 229.945 417.806 227.457 421.124 227.457H517.04C520.314 227.457 523.021 229.945 523.021 232.958V280.981C523.021 283.994 520.314 286.482 517.04 286.482H478.632L476.899 303.422H488.27C490.016 303.422 491.37 304.819 491.37 306.522C491.37 308.268 489.973 309.622 488.27 309.622H439.592C437.845 309.622 436.492 308.225 436.492 306.522C436.405 304.819 437.845 303.422 439.592 303.422H448.485Z" fill="#474961"/>
<path fill-rule="evenodd" clip-rule="evenodd" d="M479.933 274.135L480.062 303.466H476.932L479.933 274.135Z" fill="white"/>
<path d="M436.578 44.5311H292.944C288.121 44.5311 284.212 48.4404 284.212 53.2627V159.351C284.212 164.173 288.121 168.083 292.944 168.083H436.578C441.4 168.083 445.309 164.173 445.309 159.351V53.2627C445.309 48.4404 441.4 44.5311 436.578 44.5311Z" fill="#F2F6FB"/>
<path d="M379.938 137.636C395.541 128.627 400.91 108.713 391.928 93.1567C382.947 77.6003 363.017 72.2923 347.413 81.3009C331.81 90.3095 326.442 110.223 335.423 125.78C344.405 141.336 364.335 146.644 379.938 137.636ZM374.726 128.608C364.11 134.737 350.562 131.128 344.461 120.562C338.361 109.995 342.01 96.4575 352.625 90.3286C363.241 84.1997 376.789 87.8081 382.89 98.3748C388.991 108.942 385.342 122.479 374.726 128.608Z" fill="#E1E5F0"/>
<path d="M344.807 76.7869C326.71 87.2354 320.482 110.337 330.904 128.389C341.326 146.44 364.447 152.598 382.544 142.149C400.641 131.701 406.869 108.599 396.447 90.5476L387.409 95.7656C394.95 108.827 390.441 125.553 377.332 133.122C364.222 140.69 347.483 136.232 339.942 123.171C332.401 110.109 336.91 93.3834 350.019 85.8146L344.807 76.7869Z" fill="#10B981"/>
<path d="M344.537 75.3155C325.945 86.0497 319.547 109.784 330.254 128.331C340.962 146.877 364.716 153.203 383.308 142.469L377.062 131.65C364.447 138.933 348.341 134.644 341.086 122.077C333.83 109.511 338.168 93.4175 350.783 86.1344L344.537 75.3155Z" fill="#D8DEED"/>
<path d="M284.212 51.5186C284.212 47.6595 287.34 44.5311 291.199 44.5311H438.323C442.181 44.5311 445.309 47.6587 445.309 51.5186V58.5061H284.212V51.5186Z" fill="#E1E5F0"/>
<path d="M293.586 54.6945C295.253 54.6945 296.604 53.3436 296.604 51.6772C296.604 50.0108 295.253 48.6599 293.586 48.6599C291.918 48.6599 290.567 50.0108 290.567 51.6772C290.567 53.3436 291.918 54.6945 293.586 54.6945Z" fill="#FF5645"/>
<path d="M303.436 54.6945C305.103 54.6945 306.455 53.3436 306.455 51.6772C306.455 50.0108 305.103 48.6599 303.436 48.6599C301.769 48.6599 300.417 50.0108 300.417 51.6772C300.417 53.3436 301.769 54.6945 303.436 54.6945Z" fill="#FFCB3D"/>
<path d="M313.604 54.6945C315.271 54.6945 316.623 53.3436 316.623 51.6772C316.623 50.0108 315.271 48.6599 313.604 48.6599C311.937 48.6599 310.585 50.0108 310.585 51.6772C310.585 53.3436 311.937 54.6945 313.604 54.6945Z" fill="#10B981"/>
</svg>
