<svg width="531" height="419" viewBox="0 0 531 419" fill="none" xmlns="http://www.w3.org/2000/svg">
<path d="M380.341 -0.000244141H148.765C143.957 -0.000244141 140.059 3.89751 140.059 8.70564V357.376C140.059 362.184 143.957 366.082 148.765 366.082H380.341C385.149 366.082 389.047 362.184 389.047 357.376V8.70564C389.047 3.89751 385.149 -0.000244141 380.341 -0.000244141Z" fill="#F2F6FB"/>
<path d="M155.512 17.4228C157.796 17.4228 159.647 15.7663 159.647 13.7228C159.647 11.6794 157.796 10.0228 155.512 10.0228C153.228 10.0228 151.376 11.6794 151.376 13.7228C151.376 15.7663 153.228 17.4228 155.512 17.4228Z" fill="#FF5645"/>
<path d="M169.224 17.4228C171.387 17.4228 173.141 15.7663 173.141 13.7228C173.141 11.6794 171.387 10.0228 169.224 10.0228C167.06 10.0228 165.306 11.6794 165.306 13.7228C165.306 15.7663 167.06 17.4228 169.224 17.4228Z" fill="#FFCB3D"/>
<path d="M182.5 17.4228C184.544 17.4228 186.2 15.7663 186.2 13.7228C186.2 11.6794 184.544 10.0228 182.5 10.0228C180.457 10.0228 178.8 11.6794 178.8 13.7228C178.8 15.7663 180.457 17.4228 182.5 17.4228Z" fill="#3ABF7C"/>
<path d="M245.4 10.0228H284.141C284.862 10.0228 285.447 10.6075 285.447 11.3287V16.1169C285.447 16.8382 284.862 17.4228 284.141 17.4228H245.4C244.679 17.4228 244.094 16.8382 244.094 16.1169V11.3287C244.094 10.6075 244.679 10.0228 245.4 10.0228ZM355.965 10.0228H376.859C377.58 10.0228 378.165 10.6075 378.165 11.3287V16.1169C378.165 16.8382 377.58 17.4228 376.859 17.4228H355.965C355.243 17.4228 354.659 16.8382 354.659 16.1169V11.3287C354.659 10.6075 355.243 10.0228 355.965 10.0228ZM327.235 10.0228H347.694C348.415 10.0228 349 10.6075 349 11.3287V16.1169C349 16.8382 348.415 17.4228 347.694 17.4228H327.235C326.514 17.4228 325.929 16.8382 325.929 16.1169V11.3287C325.929 10.6075 326.514 10.0228 327.235 10.0228ZM217.106 125.942H312.871C313.351 125.942 313.741 126.332 313.741 126.813V134.223C313.741 134.704 313.351 135.094 312.871 135.094H217.106C216.625 135.094 216.235 134.704 216.235 134.223V126.813C216.235 126.332 216.625 125.942 217.106 125.942ZM199.694 111.126H329.412C329.893 111.126 330.282 111.515 330.282 111.996V119.407C330.282 119.887 329.893 120.277 329.412 120.277H199.694C199.213 120.277 198.824 119.887 198.824 119.407V111.996C198.824 111.515 199.213 111.126 199.694 111.126ZM155.294 159.315C155.294 158.355 156.078 157.576 157.036 157.576H372.94C373.902 157.576 374.682 158.355 374.682 159.315V300.519C374.682 301.48 373.899 302.258 372.94 302.258H157.036C156.074 302.258 155.294 301.479 155.294 300.519V159.315ZM156.656 313.411H256.227C257.003 313.411 257.284 313.492 257.568 313.644C257.852 313.796 258.075 314.018 258.226 314.302C258.378 314.586 258.459 314.867 258.459 315.644V345.171C258.459 345.947 258.378 346.228 258.226 346.512C258.075 346.796 257.852 347.019 257.568 347.17C257.284 347.322 257.003 347.403 256.227 347.403H156.656C155.879 347.403 155.598 347.322 155.314 347.17C155.031 347.019 154.808 346.796 154.656 346.512C154.504 346.228 154.424 345.947 154.424 345.171V315.644C154.424 314.867 154.504 314.586 154.656 314.302C154.808 314.018 155.031 313.796 155.314 313.644C155.598 313.492 155.879 313.411 156.656 313.411ZM272.879 313.411H372.45C373.226 313.411 373.508 313.492 373.792 313.644C374.075 313.796 374.298 314.018 374.45 314.302C374.602 314.586 374.682 314.867 374.682 315.644V345.171C374.682 345.947 374.602 346.228 374.45 346.512C374.298 346.796 374.075 347.019 373.792 347.17C373.508 347.322 373.226 347.403 372.45 347.403H272.879C272.103 347.403 271.822 347.322 271.538 347.17C271.254 347.019 271.031 346.796 270.88 346.512C270.728 346.228 270.647 345.947 270.647 345.171V315.644C270.647 314.867 270.728 314.586 270.88 314.302C271.031 314.018 271.254 313.796 271.538 313.644C271.822 313.492 272.103 313.411 272.879 313.411Z" fill="#E1E5F0"/>
<path d="M301.532 206.369C307.887 206.369 313.04 201.196 313.04 194.814C313.04 188.432 307.887 183.259 301.532 183.259C295.176 183.259 290.024 188.432 290.024 194.814C290.024 201.196 295.176 206.369 301.532 206.369Z" fill="#F2F6FB"/>
<path d="M264.771 100.187V98.4454C267.192 98.4454 269.571 98.1293 271.864 97.5117L272.317 99.193C269.876 99.8502 267.345 100.187 264.771 100.187ZM279.342 96.2571L278.464 94.7533C280.532 93.5462 282.434 92.0699 284.118 90.3664L285.356 91.5906C283.565 93.4025 281.542 94.9729 279.342 96.2571ZM289.954 85.5219L288.441 84.6616C289.622 82.5828 290.525 80.3552 291.123 78.0296L292.809 78.4628C292.173 80.9384 291.212 83.3095 289.954 85.5219ZM293.715 70.8671L291.974 70.889C291.944 68.4694 291.597 66.0949 290.95 63.8088L292.625 63.3343C293.314 65.7673 293.683 68.2939 293.715 70.8671ZM289.596 56.3444L288.104 57.2416C286.87 55.1893 285.369 53.3068 283.644 51.6448L284.852 50.3909C286.687 52.1587 288.283 54.161 289.596 56.3444ZM278.726 45.8727L277.886 47.3975C275.792 46.2435 273.554 45.3696 271.22 44.8024L271.631 43.1105C274.115 43.7143 276.498 44.6445 278.726 45.8727ZM264.025 42.3019L264.069 44.0425C261.651 44.1036 259.281 44.481 257.002 45.1588L256.505 43.4898C258.931 42.7685 261.453 42.3669 264.025 42.3019ZM249.556 46.6085L250.473 48.0891C248.437 49.3494 246.573 50.8744 244.934 52.6207L243.664 51.4289C245.408 49.5714 247.39 47.9493 249.556 46.6085ZM239.225 57.6132L240.761 58.434C239.634 60.5417 238.789 62.7915 238.252 65.1332L236.555 64.7441C237.127 62.2514 238.026 59.8565 239.225 57.6132ZM235.845 72.3594L237.585 72.2931C237.677 74.7092 238.085 77.0748 238.793 79.3457L237.13 79.8638C236.377 77.4468 235.943 74.9292 235.845 72.3594ZM240.338 86.77L241.807 85.8346C243.093 87.8543 244.642 89.6978 246.409 91.315L245.234 92.5994C243.354 90.8794 241.707 88.9186 240.338 86.77ZM251.474 96.9585L252.275 95.4124C254.396 96.5114 256.656 97.3268 259.006 97.8336L258.639 99.5356C256.138 98.9962 253.732 98.1282 251.474 96.9585ZM282.994 276.343L267.891 276.412L267.933 276.343H201.966C197.88 276.343 196.325 273.534 198.492 270.07L243.572 198.01C245.739 194.545 249.326 194.496 251.587 197.907L285.084 248.872L296.934 229.891C298.845 226.831 302.014 226.783 304.014 229.787L331.45 270.975C333.449 273.978 332.166 276.149 328.553 276.037L308.491 276.228L302.156 276.257L302.209 276.343C302.209 276.343 298.899 276.343 294.81 276.343H282.994Z" fill="#10B981"/>
<path opacity="0.176986" d="M302.03 276.442C302.03 276.442 298.72 276.442 294.631 276.442H201.787C197.701 276.442 196.146 273.633 198.313 270.169L243.392 198.109C245.56 194.644 249.147 194.595 251.407 198.006L290.39 257.317" fill="#444444"/>
<path d="M528.341 418.317H483.723C482.679 418.317 481.765 417.564 481.765 416.66V416.057C481.765 415.153 482.635 414.4 483.723 414.4H528.341C529.386 414.4 530.3 415.153 530.3 416.057V416.66C530.3 417.564 529.429 418.317 528.341 418.317ZM425.829 414.4C426.911 414.4 427.788 415.277 427.788 416.358C427.788 417.44 426.911 418.317 425.829 418.317H354.876C353.795 418.317 352.918 417.44 352.918 416.358C352.918 415.277 353.795 414.4 354.876 414.4H425.829Z" fill="#DE3190"/>
<path d="M528.579 414.413C528.501 414.404 528.421 414.4 528.341 414.4H483.873L487.392 392.194L518.559 387.972L528.579 414.413ZM426.089 414.417C426.004 414.405 425.917 414.4 425.829 414.4H355.185C355.138 414.161 355.114 413.861 355.121 413.472C355.17 413.168 355.176 412.82 355.269 412.473C355.828 410.393 356.505 409.012 358.485 407.784C360.466 406.556 362.488 405.459 364.594 404.495C372.364 400.843 375.019 400.889 380.127 397.539C382.242 396.139 384.186 394.519 386.001 392.765C387.211 391.597 389.683 389.698 393.415 387.069L426.975 387.82L426.089 414.417Z" fill="#474961"/>
<path d="M473.323 147.659C476.636 154.109 485.604 174.123 493.609 214.865C494.268 218.245 494.901 221.536 495.508 224.731L495.569 224.657C506.54 265.995 514.155 294.934 518.415 311.475C522.79 328.463 516.723 328.198 520.041 342.491C521.953 350.731 528.362 357.357 528.306 365.937C528.298 367.293 528.33 370.003 528.405 374.067C528.537 381.327 523.232 387.544 516.041 388.554L486.999 392.636C479.143 393.74 471.879 388.266 470.775 380.41C470.765 380.338 470.755 380.265 470.746 380.193C469.963 373.926 469.566 370.201 469.556 369.016C469.535 366.562 469.505 364.328 469.457 362.292C467.784 355.444 466.04 348.318 464.637 342.572C462.744 339.647 460.516 335.604 458.761 329.062C457.606 324.759 454.98 308.008 450.884 278.81C450.805 278.418 450.656 277.211 450.435 275.188L444.701 254.086C444.462 256.55 444.219 259.044 443.972 261.559C444.478 296.532 444.464 316.179 443.932 320.5C442.257 334.097 437.247 337.841 437.1 342.114C436.957 346.3 437.593 352.399 438.802 361.567C438.957 362.741 439.083 366.486 439.179 372.801C439.18 372.874 439.181 372.947 439.181 373.02C439.181 379.378 435.05 384.772 429.325 386.663C425.724 389.941 419.925 387.447 404.699 387.551C404.699 387.551 402.356 387.571 399.262 387.385L395.489 387.385C393.254 387.385 391.129 386.872 389.23 385.952C387.43 385.447 385.941 384.785 385.111 383.913C384.418 383.165 383.981 382.316 383.981 382.316C383.775 381.853 383.626 381.397 383.52 380.966C382.316 379.155 381.509 377.047 381.229 374.759C380.737 370.724 380.392 368.036 380.195 366.695C378.946 358.206 384.37 350.752 385.117 342.326C386.414 327.711 380.443 328.818 382.411 311.386C384.309 294.571 387.901 275.161 393.186 253.157C396.244 218.501 400.267 179.562 404.699 166.477C404.773 166.243 407.538 156.968 411.535 150.421C411.657 150.552 411.784 150.678 411.915 150.799C412.415 151.269 412.913 151.609 413.409 151.861C414.404 152.454 415.227 152.657 415.227 152.657C415.227 152.657 415.268 152.656 415.31 152.699C415.31 152.699 441.998 159.373 468.477 151.771L468.558 151.726C468.558 151.726 469.374 151.494 470.347 150.868C470.794 150.599 471.32 150.198 471.804 149.754C472.411 149.161 472.911 148.446 473.323 147.659Z" fill="#A339FF"/>
<path opacity="0.176986" d="M417.244 153.125L431.178 204.502L444.688 254.224C444.453 256.644 444.214 259.091 443.972 261.559C444.478 296.532 444.464 316.179 443.932 320.5C442.257 334.097 437.247 337.841 437.1 342.114C436.957 346.3 437.593 352.399 438.802 361.567C438.957 362.741 439.083 366.486 439.179 372.801C439.18 372.874 439.181 372.947 439.181 373.02C439.181 379.378 435.05 384.772 429.325 386.663C425.724 389.941 419.925 387.447 404.699 387.551C404.699 387.551 402.356 387.571 399.262 387.385L395.488 387.385C393.254 387.385 391.129 386.872 389.23 385.952C387.43 385.447 385.941 384.785 385.111 383.913C384.418 383.165 383.981 382.316 383.981 382.316C383.775 381.853 383.626 381.397 383.52 380.966C382.316 379.155 381.509 377.047 381.229 374.759C380.737 370.724 380.392 368.036 380.195 366.695C378.946 358.206 384.37 350.752 385.117 342.326C386.414 327.711 380.443 328.818 382.411 311.386C384.309 294.571 387.901 275.161 393.186 253.157C396.244 218.501 400.267 179.562 404.699 166.477C404.773 166.243 407.538 156.968 411.535 150.421C411.657 150.552 411.784 150.678 411.915 150.799C412.415 151.269 412.913 151.609 413.409 151.861C414.404 152.454 415.227 152.657 415.227 152.657C415.227 152.657 415.268 152.656 415.31 152.699C415.31 152.699 415.991 152.869 417.244 153.125Z" fill="#444444"/>
<path d="M473.786 93.0148C473.836 93.5152 473.885 94.032 473.933 94.5651L473.935 94.6957L474.054 96.8269C474.755 120.542 475.106 131.202 475.301 135.378C475.301 135.378 475.268 135.814 475.32 136.466C475.436 138.38 475.614 146.257 471.986 149.803C471.502 150.247 470.975 150.648 470.529 150.917C469.556 151.543 468.74 151.775 468.74 151.775L468.659 151.82C442.179 159.422 415.492 152.748 415.492 152.748C415.041 152.629 414.605 152.507 413.777 152.094C412.964 151.689 412.191 151.091 411.943 150.858C408.234 147.44 408.291 139.552 408.339 137.635C408.329 137.026 408.32 136.547 408.32 136.547C408.367 132.564 408.35 122.89 408.242 101.904C397.845 100.939 393.636 97.9405 395.615 92.9073C400.11 81.4741 403.086 70.5035 420.906 69.2359C425.278 67.0561 430.052 66.3262 433.375 66.1039C435.3 65.9833 436.735 66.0018 437.31 66.0353C437.556 66.031 437.885 66.0688 438.5 66.1016C439.116 66.1343 439.813 66.1657 440.593 66.1956C441.371 66.1385 442.067 66.0828 442.681 66.0286C443.296 65.9743 443.582 65.9258 443.869 65.9208C444.483 65.8665 445.876 65.7987 447.804 65.8521C448.264 65.8668 448.751 65.8898 449.262 65.924C449.52 65.8648 449.781 65.8066 450.047 65.7493C468.361 61.7967 474.152 71.8037 481.587 81.8668C484.564 85.8946 481.963 89.6107 473.786 93.0148Z" fill="#DE3190"/>
<path opacity="0.176986" d="M420.629 69.2344C418.085 70.5169 415.681 72.2942 413.786 74.7527C412.944 75.8558 411.866 77.529 411.047 79.9378C410.93 80.2881 410.812 80.5949 410.695 80.9452C410.421 81.6901 409.834 83.2677 409.331 84.9744C408.79 86.8994 408.362 90.5639 408.082 95.6625L408.084 95.7931L408.039 97.9271C408.047 99.2713 408.054 100.573 408.06 101.835C397.92 100.836 393.828 97.8479 395.784 92.8718C400.241 81.5346 403.206 70.6522 420.629 69.2344Z" fill="#444444"/>
<path d="M470.78 199.501C470.417 199.783 470.202 199.908 470.202 199.908C464.488 198.949 472.658 177.785 475.093 171.794L454.582 98.4228C467.315 95.7308 475.714 92.7964 479.78 89.6197C490.838 134.115 496.813 162.654 497.706 175.235C497.774 175.634 497.815 176.062 497.83 176.518C498.069 183.84 495.636 195.045 490.532 210.133C490.491 210.222 477.217 216.74 467.877 211.229L470.78 199.501ZM414.923 27.7281C414.941 27.7038 414.96 27.6792 414.977 27.6543C418.798 23.3725 425.831 23.499 428.998 24.182C429.383 24.2662 430.751 24.585 432.728 24.9242C433.802 25.1245 434.667 25.2155 435.182 25.3134C441.605 26.2511 444.241 25.7403 447.306 27.8132C447.88 28.18 449.184 29.1048 450.237 30.7474C453.206 35.3926 451.801 40.8474 451.412 42.4697C450.114 47.323 446.938 50.0531 445.941 51.2175C445.198 52.098 444.168 53.0809 443.165 53.9689L444.135 68.0179C444.146 68.3224 444.026 68.6315 443.77 68.7711C442.663 69.5066 441.081 70.3459 439.095 70.8508C435.513 71.8035 432.403 71.3023 430.645 70.841C430.293 70.7662 430.02 70.4273 430.008 70.0792L429.483 60.8664C429.102 60.9659 428.695 61.0691 428.261 61.177C424.436 62.1756 424.666 62.0685 424.397 62.1278C421.597 62.5338 419.269 62.2015 418.845 62.0694C417.3 61.7757 415.791 60.3041 414.552 57.9415C412.87 54.7885 411.577 50.0131 411.202 44.415C411.111 43.6176 411.15 42.8338 411.188 42.05L411.83 34.2827C411.968 32.5465 412.54 30.8558 413.57 29.3884C413.989 28.7321 414.394 28.2057 414.877 27.775C414.892 27.7593 414.908 27.7437 414.923 27.7281ZM395.652 97.172C397.037 99.6716 401.233 101.247 408.242 101.897C408.318 116.579 408.349 125.724 408.345 131.258C397.892 144.132 390.897 142.123 390.897 142.123C386.026 142.334 382.301 140.119 380.895 139.268C368.632 131.873 345.352 90.7136 341.337 83.5036C336.037 82.7776 331.089 81.3849 326.493 79.3255C319.163 76.0411 316.209 72.925 317.632 69.9772L355.197 72.4026L355.3 72.3312L387.878 106.618C391.293 102.991 393.612 100.028 395.652 97.172Z" fill="#F2A98A"/>
<path opacity="0.2" d="M395.793 97.172C397.177 99.6716 401.374 101.246 408.383 101.897C408.459 116.579 408.49 125.724 408.486 131.258C398.032 144.132 391.038 142.123 391.038 142.123C386.166 142.334 382.441 140.119 381.035 139.268C368.772 131.873 345.493 90.7136 341.478 83.5035C336.178 82.7775 331.229 81.3848 326.633 79.3255C319.303 76.0411 316.349 72.925 317.772 69.9772L355.337 72.4026L355.44 72.3312L388.019 106.618C391.433 102.991 393.753 100.028 395.793 97.172Z" fill="#8C2A00"/>
<path d="M428.777 61.019L435.19 58.9727L429.944 66.989L428.777 61.019Z" fill="#482D1F"/>
<path d="M444.412 43.4334C444.458 42.3786 444.241 41.2959 443.674 40.2996C442.493 38.2059 440.01 36.8506 437.859 37.3249C436.649 37.5917 435.774 38.4189 435.679 38.4963C434.355 39.8454 433.932 41.3766 433.932 41.3766L433.719 42.3929C418.118 36.4414 415.093 28.9301 414.28 28.4564C414.529 28.1761 414.772 27.9391 414.925 27.7363C418.789 23.4591 425.952 23.5992 429.162 24.2868C429.591 24.3756 430.958 24.6943 432.979 25.0381C434.095 25.2429 434.961 25.3339 435.476 25.4318C442.029 26.3832 444.708 25.877 447.817 27.9544C448.391 28.3211 449.737 29.2505 450.79 30.8931C454.074 35.8778 452.578 41.3668 452.009 42.62C451.61 43.4973 450.984 44.0442 450.984 44.0442C448.678 43.6986 446.529 43.5454 444.412 43.4334ZM410.082 39.8833C409.652 39.7736 409.551 39.2016 409.871 38.9133C410.281 38.586 410.994 38.2747 411.864 38.3203C413.646 38.4137 415.497 39.6876 413.47 40.1044C412.281 40.3472 410.899 40.1004 410.082 39.8833ZM419.021 40.6569C418.59 40.5471 418.49 39.9752 418.853 39.6891C419.263 39.3619 419.977 39.0506 420.889 39.0984C422.672 39.1918 424.521 40.5092 422.496 40.8826C421.217 41.1643 419.837 40.874 419.021 40.6569Z" fill="#482D1F"/>
<path d="M413.313 43.1038C413.231 43.8405 413.037 45.0508 412.579 45.4627C411.806 46.076 410.964 43.8524 411.599 42.5345C411.846 41.9808 412.155 41.9098 412.501 41.9715C413.018 42.0857 413.34 42.5821 413.313 43.1038ZM421.099 43.4246C421.103 44.1659 421.04 45.383 420.578 45.8819C419.887 46.5867 418.779 44.4364 419.287 43.0681C419.49 42.5121 419.801 42.3977 420.149 42.4159C420.671 42.4432 421.082 42.9007 421.099 43.4246Z" fill="#482D1F"/>
<path d="M417.067 52.1491C417.376 52.0781 418.126 51.8995 418.282 51.4282C418.286 51.3413 418.337 51.2131 418.298 51.1239C418.14 50.8105 417.609 50.957 416.824 50.9595C415.429 50.9735 414.305 50.7839 414.305 50.7839C414.305 50.7839 414.564 51.6692 414.768 51.9415C415.168 52.6163 416.582 52.2545 417.067 52.1491Z" fill="#482D1F"/>
<path d="M414.569 43.2568L414.576 43.1967L414.571 43.2265L414.569 43.2568ZM413.681 47.8138C413.573 48.2998 413.928 48.8011 414.419 48.9096C414.527 48.9254 414.527 48.9254 414.597 48.9345C415.328 49.0293 415.785 49.0743 416.572 49.1156C416.812 49.1282 417.017 48.9438 417.03 48.7037C417.042 48.4636 416.858 48.2588 416.618 48.2462C415.855 48.2062 415.419 48.1633 414.709 48.0712L414.569 48.0529C414.568 48.051 414.531 47.9989 414.533 47.9907L415.431 43.3625L415.438 43.3024L415.573 40.7377C415.585 40.4976 415.401 40.2928 415.161 40.2802C414.921 40.2676 414.716 40.4521 414.703 40.6921L414.571 43.2265L413.681 47.8138Z" fill="#482D1F"/>
<path d="M444.383 42.7615C444.448 44.0508 444.075 45.4078 443.382 46.4577C442.535 47.7837 441.47 48.4434 440.136 48.8969C439.908 48.9743 439.787 49.2215 439.864 49.4491C439.941 49.6768 440.189 49.7986 440.416 49.7212C441.003 49.5217 441.473 49.3191 442.029 48.9749C442.848 48.4677 443.559 47.798 444.113 46.9317C444.903 45.7329 445.327 44.1928 445.253 42.7177C445.241 42.4776 445.036 42.2928 444.796 42.3049C444.556 42.3169 444.371 42.5214 444.383 42.7615Z" fill="#482D1F"/>
<path d="M477.644 197.326C477.713 196.972 478.056 196.741 478.41 196.81C478.764 196.879 478.995 197.222 478.926 197.576C478.493 199.799 478.101 201.515 477.186 205.329C476.276 209.125 475.887 210.829 475.459 213.028C475.39 213.382 475.047 213.613 474.693 213.544C474.339 213.475 474.108 213.132 474.177 212.778C474.61 210.555 475.002 208.839 475.917 205.025C476.827 201.229 477.216 199.525 477.644 197.326ZM486.473 195.41C486.564 195.061 486.921 194.852 487.27 194.943C487.619 195.033 487.828 195.39 487.737 195.739C487.115 198.13 486.675 199.994 485.728 204.153C484.777 208.325 484.335 210.197 483.709 212.605C483.618 212.954 483.262 213.163 482.913 213.073C482.564 212.982 482.355 212.625 482.445 212.276C483.067 209.886 483.507 208.022 484.455 203.863C485.405 199.691 485.847 197.818 486.473 195.41Z" fill="#482D1F"/>
<path d="M339.424 79.7717C354.81 79.7717 367.282 67.2015 367.282 51.6952C367.282 36.189 354.81 23.6188 339.424 23.6188C324.038 23.6188 311.565 36.189 311.565 51.6952C311.565 67.2015 324.038 79.7717 339.424 79.7717Z" fill="#10B981"/>
<path d="M339.499 51.0396C336.425 51.0396 333.934 48.5788 333.934 45.5432C333.934 42.5076 336.425 40.0468 339.499 40.0468C342.573 40.0468 345.064 42.5076 345.064 45.5432C345.064 48.5788 342.573 51.0396 339.499 51.0396ZM339.499 53.7878C345.07 53.7878 349.586 58.2481 349.586 63.7501H329.412C329.412 58.2481 333.928 53.7878 339.499 53.7878Z" fill="#F2F6FB"/>
<path d="M42.2482 321.514V321.595C42.2482 322.64 43.1624 323.51 44.2071 323.51H77.0724L65.493 344.753C57.2224 359.901 48.9953 375.006 40.7682 390.154L27.1436 415.14C26.6647 416.01 27.0565 417.142 27.9706 417.664L28.1447 417.752C29.0588 418.274 30.2341 417.969 30.6694 417.142L81.6424 323.51H115.595L166.568 417.142C167.004 417.969 168.179 418.23 169.093 417.752L169.267 417.664C170.181 417.142 170.573 416.01 170.094 415.14L156.469 390.154C148.199 375.006 139.972 359.901 131.745 344.753L120.165 323.51H163.739C164.827 323.51 165.698 322.64 165.698 321.595V321.377C165.698 320.333 164.784 319.462 163.739 319.462H134.139C114.855 319.462 95.5282 319.462 76.2012 319.462H46.0916L42.4224 289.775C39.8977 269.577 37.4165 249.336 34.8918 229.095L30.7565 195.664C30.6259 194.489 29.6247 193.619 28.5365 193.749L28.3188 193.793C27.2741 193.923 26.5341 195.012 26.6647 196.1L42.2047 321.29C42.216 321.367 42.2306 321.441 42.2482 321.514Z" fill="#D8DEED"/>
<path d="M136.895 414.57C136.627 414.436 136.328 414.359 136.014 414.359H112.476L69.2793 382.177L85.6471 359.248L111.852 378.27C113.288 383.146 114.768 388.021 116.248 392.94C117.032 395.508 117.815 398.033 118.599 400.557C121.036 401.515 123.126 402.386 124.606 403.039C127.435 404.257 129.829 405.389 132.441 407.087C132.441 407.087 134.705 408.48 135.967 410.482C136.359 411.135 136.707 411.875 136.925 412.659C137.012 413.007 137.012 413.355 137.055 413.66C137.042 413.945 136.977 414.265 136.895 414.57ZM218.426 414.497C218.282 414.464 218.133 414.446 217.98 414.446H147.897C147.766 414.446 147.638 414.459 147.514 414.484L146.833 387.348L179.745 387.252C183.767 389.881 186.383 391.78 187.594 392.949C189.409 394.702 191.353 396.323 193.467 397.722C198.576 401.073 201.231 401.026 209.001 404.678C211.107 405.643 213.129 406.739 215.11 407.967C217.09 409.195 217.767 410.577 218.326 412.657C218.419 413.003 218.425 413.352 218.474 413.655C218.48 413.999 218.462 414.274 218.426 414.497Z" fill="#474961"/>
<path d="M110.89 417.926C110.847 417.899 110.805 417.87 110.764 417.839L67.06 385.279C66.1894 384.626 66.0153 383.363 66.6682 382.493C67.3212 381.622 68.5835 381.448 69.4541 382.101L112.69 414.313H136.228C137.316 414.313 138.231 415.227 138.231 416.315C138.231 417.403 137.316 418.317 136.228 418.317H112.069C111.627 418.317 111.22 418.173 110.89 417.926ZM148.112 414.4H218.194C219.276 414.4 220.153 415.277 220.153 416.359C220.153 417.44 219.276 418.317 218.194 418.317H148.112C147.03 418.317 146.153 417.44 146.153 416.359C146.153 415.277 147.03 414.4 148.112 414.4Z" fill="#FF5645"/>
<path d="M194.478 303.712C191.234 320.761 189.907 345.749 193.088 361.478C193.088 361.478 196.392 388.51 194.077 388.684C193.516 388.728 187.549 388.989 186.917 389.032C171.21 390.077 143.932 392.167 139.864 392.167C137.153 392.167 135.797 390.425 135.797 386.943L134.912 377.592V377.517C131.913 381.096 128.798 384.808 125.57 388.651C120.767 390.077 113.502 388.035 103.775 382.525C94.0486 377.015 86.5198 371.583 81.189 366.23C78.6208 364.576 72.3706 355.428 74.0247 353.034L84.9506 337.102L91.48 327.569C93.3082 324.87 94.6883 323.081 96.6471 320.251C96.6471 320.208 96.9978 319.69 96.9978 319.647C96.3014 319.647 97.0953 319.081 92.1329 319.037C87.1706 318.994 60.4435 318.428 50.2141 303.671C46.1334 297.785 45.8176 291.265 45.5129 288.349C44.3811 277.002 47.3745 267.807 54.4929 260.763C56.3996 259.362 57.8027 258.531 58.7023 258.27C60.1388 257.835 67.7129 257.617 69.1929 257.53L99.5764 257.138C114.035 256.946 126.106 256.783 135.791 256.648L135.797 256.572L135.791 256.648C155.361 256.375 165.185 256.22 165.262 256.181C165.436 256.094 184.215 256.877 189.265 259.794C198.936 265.46 204.022 283.316 194.478 303.712Z" fill="#FFCB3D"/>
<path opacity="0.2" d="M194.383 303.883C191.152 320.929 189.836 345.854 193.011 361.553C193.011 361.553 196.314 388.585 194 388.759C193.439 388.803 187.471 389.064 186.84 389.108C171.133 390.152 143.854 392.242 139.787 392.242C137.076 392.242 135.72 390.5 135.72 387.018L134.837 377.683C172.337 332.933 191.965 308.79 193.721 305.256C193.949 304.797 194.17 304.339 194.383 303.883ZM135.702 256.861L135.72 256.648L135.702 256.861ZM152.143 256.626C152.134 256.626 152.126 256.626 152.118 256.626L151.498 256.517H151.568C151.76 256.553 151.952 256.59 152.143 256.626Z" fill="#8C2A00"/>
<path d="M116.741 290.611C114.593 293.86 112.331 297.016 106.84 304.529C101.329 312.066 99.0604 315.233 96.8914 318.514C96.6262 318.915 96.7364 319.455 97.1375 319.72C97.5386 319.985 98.0787 319.875 98.3439 319.474C100.492 316.225 102.753 313.069 108.245 305.556C113.755 298.018 116.024 294.852 118.193 291.571C118.458 291.17 118.348 290.63 117.947 290.365C117.546 290.1 117.006 290.21 116.741 290.611Z" fill="#482D1F"/>
<path d="M189.605 179.042C191.083 180.197 191.345 182.33 190.19 183.808C190.173 183.831 190.155 183.853 190.137 183.875L172.151 205.732C171.228 206.854 169.579 207.035 168.434 206.14C167.289 205.246 167.066 203.601 167.931 202.434L184.787 179.696C185.904 178.189 188.03 177.873 189.537 178.99C189.56 179.007 189.583 179.024 189.605 179.042Z" fill="#474961"/>
<path d="M185.883 183.563C189.672 186.523 195.095 185.913 197.996 182.199C199.391 180.414 197.45 176.694 197.932 171.176C198.044 169.887 198.939 167.804 200.617 164.926L200.617 164.926C200.738 164.718 200.667 164.452 200.46 164.331C200.358 164.272 200.237 164.256 200.124 164.287C191.42 166.7 186.137 169.097 184.276 171.48C181.375 175.193 182.094 180.603 185.883 183.563Z" fill="#F2F6FB"/>
<path d="M190.001 178.34C190.894 179.037 193.819 177.232 194.247 178.177C195.679 181.342 195.635 185.623 197.984 182.616C199.45 180.739 197.489 176.89 198.058 171.138C198.191 169.791 199.149 167.601 200.932 164.57L200.932 164.57C201.053 164.362 200.984 164.096 200.777 163.974C200.674 163.913 200.55 163.898 200.435 163.931C191.383 166.556 185.879 169.122 183.921 171.628C182.166 173.874 183.574 175.04 186.247 175.407C187.182 175.535 187.815 174.435 189.133 174.181C190.598 173.899 189.133 177.661 190.001 178.34Z" fill="#10B981"/>
<path d="M105.118 179.064C115.939 182.82 122.792 193.926 120.769 205.67L111.684 256.978L61.4134 257.878C58.5356 257.362 56.5064 256.158 55.3256 254.265C53.5545 251.427 54.0371 247.83 54.2784 246.445L63.351 195.713C65.5933 182.839 77.733 174.173 90.5937 176.21L91.4733 172.072C91.5733 171.602 92.0356 171.302 92.5059 171.402L105.279 174.117C105.75 174.217 106.05 174.679 105.95 175.149L105.118 179.064Z" fill="#FF5645"/>
<path d="M94.704 157.451C93.7892 166.738 93.2983 171.428 93.2311 171.521C93.162 171.617 97.1063 172.468 105.064 174.076L105.771 170.484C105.956 170.553 106.147 170.623 106.344 170.695C110.026 172.111 109.806 171.985 110.068 172.067C112.823 172.759 115.173 172.675 115.607 172.624C119.259 172.299 123.408 165.565 125.155 155.913C125.315 155.127 125.345 154.343 125.418 153.558L125.631 145.761C125.687 144.019 125.309 142.284 124.455 140.775C124.095 140.128 123.737 139.525 123.337 139.053C118.749 133.125 110.499 134.357 109.022 134.557C108.848 134.56 108.674 134.607 108.5 134.61C106.853 135.031 105.368 134.752 103.801 134.736C103.104 134.748 102.548 135.323 102.517 136.021L102.494 147.166C102.469 148.211 99.453 145.828 98.2764 145.761C96.1842 145.623 93.9037 148.883 93.1575 151.03C92.3273 153.352 93.0647 155.69 94.4405 157.189C94.5272 157.281 94.6151 157.368 94.704 157.451ZM123.491 234.515C124.415 234.201 125.337 233.885 126.257 233.568C133.293 231.141 140.218 228.666 147.734 225.916C150.266 225.016 151.352 224.565 153.17 223.843C159.09 221.47 181.371 212.349 182.438 211.5C186.192 209.891 183.728 196.521 183.728 191.637C177.509 194.372 168.96 197.875 158.081 202.145C155.886 203.276 154.303 204.745 153.17 205.97C151.32 206.109 136.526 208.683 122.896 210.962C123.269 210.899 123.643 210.835 124.018 210.771C123.93 207.292 123.288 201.983 120.525 196.218C121.213 199.226 121.328 202.425 120.769 205.67L119.739 211.489C111.766 212.811 104.598 213.954 101.232 214.336C101.042 213.786 99.5432 207.289 96.7368 194.846L70.792 202.145C71.3874 205.72 72.8161 211.45 75.078 219.335C78.471 231.163 79.7809 239.996 88.6562 242.583C90.725 243.189 93.4067 243.095 99.3602 241.656C104.964 240.3 110.17 238.81 115.177 237.239L111.691 256.919L111.673 256.92L111.684 256.978L159.433 256.313C161.953 256.235 159.016 254.513 150.622 251.147C142.229 247.781 133.673 244.919 124.955 242.561L124.693 234.107C124.293 234.244 123.892 234.38 123.491 234.515ZM65.1276 190.064C71.5067 192.825 77.6822 193.147 83.6542 191.028C89.6262 188.909 92.6605 184.152 92.7572 176.756C87.5437 175.169 82.0697 175.601 76.3354 178.052C70.601 180.502 66.8651 184.506 65.1276 190.064Z" fill="#DB9E75"/>
<path d="M105.095 173.814L101.432 168.585L105.775 170.485L105.095 173.814Z" fill="#482D1F"/>
<path d="M122.704 154.164C122.755 153.637 123.162 153.216 123.683 153.179C124.03 153.155 124.346 153.307 124.519 153.906C124.92 155.275 123.714 157.366 123.095 156.624C122.624 156.133 122.669 154.908 122.704 154.164ZM114.957 154.444C115.007 153.917 115.414 153.496 115.935 153.459C116.283 153.435 116.599 153.587 116.771 154.186C117.173 155.555 115.966 157.646 115.347 156.904C114.876 156.413 114.878 155.191 114.957 154.444Z" fill="#482D1F"/>
<path d="M117.741 163.064C117.431 162.998 116.675 162.789 116.511 162.321C116.505 162.234 116.453 162.107 116.49 162.017C116.645 161.744 117.219 161.835 118.007 161.867C119.405 161.9 120.525 161.691 120.525 161.691C120.525 161.691 120.239 162.584 120.037 162.816C119.651 163.541 118.228 163.161 117.741 163.064Z" fill="#482D1F"/>
<path d="M125.727 150.593C126.155 150.476 126.293 149.942 125.968 149.66C125.552 149.34 124.871 148.951 123.999 148.968C122.213 149.006 120.332 150.185 122.285 150.659C123.531 151.008 124.911 150.781 125.727 150.593ZM117.303 151.182C117.731 151.065 117.869 150.531 117.5 150.252C117.085 149.932 116.403 149.543 115.488 149.563C113.702 149.601 111.824 150.823 113.774 151.254C115.063 151.6 116.444 151.373 117.303 151.182ZM94.7297 163.871C96.3399 162.793 97.434 161.099 98.0119 158.79C97.2177 158.565 95.9949 158.079 95.0025 156.962C93.6702 155.461 92.9336 153.167 93.7653 150.932C94.5115 148.786 96.6588 147.094 98.7509 147.231C99.9276 147.298 100.853 147.935 100.985 148.02C102.44 149.083 103.074 150.465 103.074 150.465L104.015 152.854C105.512 151.802 108.524 147.813 113.051 140.887C115.565 140.584 117.507 140.374 118.876 140.258C120.929 140.083 123.132 140.289 123.962 139.956C123.902 140.103 123.843 140.251 123.783 140.4C123.931 140.142 124.006 139.999 124.006 139.999C124.047 139.868 123.34 139.227 123.338 139.14C119.015 133.425 111.058 133.956 109.581 134.156C109.407 134.159 109.233 134.205 109.059 134.165C106.626 134.469 104.581 134.548 103.189 134.616C96.5759 134.862 93.9928 134.036 90.6705 135.748C90.0665 136.064 88.6431 136.829 87.4075 138.374C86.6929 139.239 86.1567 140.158 85.7578 141.088C81.9631 140.964 79.2688 142.85 77.6749 146.747C75.5465 151.949 78.8103 156.661 82.8754 158.588C84.5889 162.858 89.2886 165.933 93.0747 164.704C93.756 164.482 94.3077 164.205 94.7297 163.871Z" fill="#482D1F"/>
<path d="M120.471 154.684L120.465 154.621L120.47 154.652L120.471 154.684ZM121.311 159.231L121.317 159.279C121.35 159.753 121.056 160.216 120.589 160.328C120.503 160.342 120.455 160.349 120.406 160.356C119.949 160.418 119.62 160.445 118.437 160.528C118.197 160.545 117.989 160.364 117.972 160.124C117.955 159.884 118.136 159.676 118.376 159.659C119.538 159.578 119.858 159.551 120.289 159.493C120.334 159.487 120.379 159.48 120.424 159.474C120.414 159.475 120.447 159.422 120.449 159.357L119.608 154.778L119.601 154.715L119.509 152.147C119.5 151.907 119.688 151.705 119.928 151.697C120.169 151.688 120.371 151.876 120.379 152.116L120.47 154.652L121.311 159.231Z" fill="#482D1F"/>
<path d="M96.2803 194.545L96.2803 191.036C96.2803 190.675 96.5727 190.383 96.9333 190.383C97.2939 190.383 97.5862 190.675 97.5862 191.036L97.5862 194.545C97.5862 194.906 97.2939 195.198 96.9333 195.198C96.5727 195.198 96.2803 194.906 96.2803 194.545Z" fill="#482D1F"/>
<path opacity="0.2" d="M120.539 196.218C121.286 197.742 122.023 199.724 122.749 202.163C123.474 204.602 123.892 207.472 124.001 210.774L119.734 211.471C120.122 209.36 120.39 207.849 120.539 206.936C120.819 205.215 121.123 203.694 121.123 202.501C121.123 200.363 120.928 198.268 120.539 196.218ZM115.176 237.238L124.691 234.109L124.955 242.561C140.493 247.218 151.378 251.091 157.61 254.18C158.866 254.802 159.645 255.247 159.949 255.515C160.077 255.634 160.177 255.737 160.25 255.824C160.429 256.037 160.25 256.256 159.684 256.296C159.306 256.323 143.303 256.536 111.673 256.935L115.176 237.238Z" fill="#8C2A00"/>
</svg>
