<svg width="428" height="449" viewBox="0 0 428 449" fill="none" xmlns="http://www.w3.org/2000/svg">
<path d="M171.341 0.599854H3.31764C1.8752 0.599854 0.705872 1.76918 0.705872 3.21162V130.753C0.705872 132.195 1.8752 133.365 3.31764 133.365H171.341C172.784 133.365 173.953 132.195 173.953 130.753V3.21162C173.953 1.76918 172.784 0.599854 171.341 0.599854Z" fill="#F2F6FB"/>
<path d="M39.1061 69.057C47.6 69.057 54.4857 62.213 54.4857 53.7705C54.4857 45.3279 47.6 38.4839 39.1061 38.4839C30.6121 38.4839 23.7264 45.3279 23.7264 53.7705C23.7264 62.213 30.6121 69.057 39.1061 69.057Z" fill="#D8DEED"/>
<path d="M39.0978 53.553C36.8932 53.553 35.106 51.8006 35.106 49.6389C35.106 47.4772 36.8932 45.7249 39.0978 45.7249C41.3024 45.7249 43.0896 47.4772 43.0896 49.6389C43.0896 51.8006 41.3024 53.553 39.0978 53.553ZM39.0978 55.51C43.0937 55.51 46.333 58.6862 46.333 62.6042H31.8626C31.8626 58.6862 35.1019 55.51 39.0978 55.51Z" fill="#F2F6FB"/>
<path d="M26.1353 73.0798H52.077C53.8544 73.0798 55.2952 74.5207 55.2952 76.2981C55.2952 78.0754 53.8544 79.5163 52.077 79.5163H26.1353C24.3579 79.5163 22.9171 78.0754 22.9171 76.2981C22.9171 74.5207 24.3579 73.0798 26.1353 73.0798ZM30.1825 83.5391H48.0297C49.8071 83.5391 51.2479 84.9799 51.2479 86.7573C51.2479 88.5347 49.8071 89.9755 48.0297 89.9755H30.1825C28.4052 89.9755 26.9643 88.5347 26.9643 86.7573C26.9643 84.9799 28.4052 83.5391 30.1825 83.5391Z" fill="#E1E5F0"/>
<path d="M28.5489 100.636H49.6633C52.7737 100.636 55.2952 103.158 55.2952 106.268C55.2952 109.379 52.7737 111.9 49.6633 111.9H28.5489C25.4385 111.9 22.9171 109.379 22.9171 106.268C22.9171 103.158 25.4385 100.636 28.5489 100.636ZM76.7301 100.636H97.8444C100.955 100.636 103.476 103.158 103.476 106.268C103.476 109.379 100.955 111.9 97.8444 111.9H76.7301C73.6197 111.9 71.0982 109.379 71.0982 106.268C71.0982 103.158 73.6197 100.636 76.7301 100.636ZM125.253 100.636H146.367C149.478 100.636 151.999 103.158 151.999 106.268C151.999 109.379 149.478 111.9 146.367 111.9H125.253C122.143 111.9 119.621 109.379 119.621 106.268C119.621 103.158 122.143 100.636 125.253 100.636Z" fill="#474BFF"/>
<path d="M87.2872 69.057C95.7811 69.057 102.667 62.213 102.667 53.7705C102.667 45.3279 95.7811 38.4839 87.2872 38.4839C78.7933 38.4839 71.9076 45.3279 71.9076 53.7705C71.9076 62.213 78.7933 69.057 87.2872 69.057Z" fill="#D8DEED"/>
<path d="M87.2789 53.553C85.0743 53.553 83.2871 51.8006 83.2871 49.6389C83.2871 47.4772 85.0743 45.7249 87.2789 45.7249C89.4836 45.7249 91.2708 47.4772 91.2708 49.6389C91.2708 51.8006 89.4836 53.553 87.2789 53.553ZM87.2789 55.51C91.2748 55.51 94.5141 58.6862 94.5141 62.6042H80.0438C80.0438 58.6862 83.2831 55.51 87.2789 55.51Z" fill="#F2F6FB"/>
<path d="M74.3164 73.0798H100.258C102.036 73.0798 103.476 74.5207 103.476 76.2981C103.476 78.0754 102.036 79.5163 100.258 79.5163H74.3164C72.5391 79.5163 71.0982 78.0754 71.0982 76.2981C71.0982 74.5207 72.5391 73.0798 74.3164 73.0798ZM74.3164 83.5391H100.258C102.036 83.5391 103.476 84.9799 103.476 86.7573C103.476 88.5347 102.036 89.9755 100.258 89.9755H74.3164C72.5391 89.9755 71.0982 88.5347 71.0982 86.7573C71.0982 84.9799 72.5391 83.5391 74.3164 83.5391Z" fill="#E1E5F0"/>
<path d="M135.81 69.057C144.304 69.057 151.19 62.213 151.19 53.7705C151.19 45.3279 144.304 38.4839 135.81 38.4839C127.316 38.4839 120.43 45.3279 120.43 53.7705C120.43 62.213 127.316 69.057 135.81 69.057Z" fill="#D8DEED"/>
<path d="M135.802 53.553C133.597 53.553 131.81 51.8006 131.81 49.6389C131.81 47.4772 133.597 45.7249 135.802 45.7249C138.006 45.7249 139.794 47.4772 139.794 49.6389C139.794 51.8006 138.006 53.553 135.802 53.553ZM135.802 55.51C139.798 55.51 143.037 58.6862 143.037 62.6042H128.567C128.567 58.6862 131.806 55.51 135.802 55.51Z" fill="#F2F6FB"/>
<path d="M126.886 73.0798H144.734C146.511 73.0798 147.952 74.5207 147.952 76.2981C147.952 78.0754 146.511 79.5163 144.734 79.5163H126.886C125.109 79.5163 123.668 78.0754 123.668 76.2981C123.668 74.5207 125.109 73.0798 126.886 73.0798ZM122.839 83.5391H148.781C150.558 83.5391 151.999 84.9799 151.999 86.7573C151.999 88.5347 150.558 89.9755 148.781 89.9755H122.839C121.062 89.9755 119.621 88.5347 119.621 86.7573C119.621 84.9799 121.062 83.5391 122.839 83.5391Z" fill="#E1E5F0"/>
<path d="M0.705872 8.1084C0.705872 3.96154 4.06957 0.599854 8.21265 0.599854H166.446C170.592 0.599854 173.953 3.96063 173.953 8.1084V15.6169H0.705872V8.1084Z" fill="#D8DEED"/>
<path d="M10.7863 11.5215C12.5791 11.5215 14.0325 10.0699 14.0325 8.27919C14.0325 6.4885 12.5791 5.03687 10.7863 5.03687C8.99343 5.03687 7.54004 6.4885 7.54004 8.27919C7.54004 10.0699 8.99343 11.5215 10.7863 11.5215Z" fill="#FF5645"/>
<path d="M21.3793 11.5215C23.1722 11.5215 24.6256 10.0699 24.6256 8.27919C24.6256 6.4885 23.1722 5.03687 21.3793 5.03687C19.5865 5.03687 18.1331 6.4885 18.1331 8.27919C18.1331 10.0699 19.5865 11.5215 21.3793 11.5215Z" fill="#FFCB3D"/>
<path d="M32.314 11.5215C34.1068 11.5215 35.5602 10.0699 35.5602 8.27919C35.5602 6.4885 34.1068 5.03687 32.314 5.03687C30.5211 5.03687 29.0677 6.4885 29.0677 8.27919C29.0677 10.0699 30.5211 11.5215 32.314 11.5215Z" fill="#10B981"/>
<path d="M274.07 85.4822H167.423C162.615 85.4822 158.718 89.3799 158.718 94.1881V211.282C158.718 216.09 162.615 219.988 167.423 219.988H274.07C278.879 219.988 282.776 216.09 282.776 211.282V94.1881C282.776 89.3799 278.879 85.4822 274.07 85.4822Z" fill="#E1E5F0"/>
<path d="M177.077 174.214H264.486C265.731 174.214 266.74 175.223 266.74 176.468C266.74 177.713 265.731 178.722 264.486 178.722H177.077C175.832 178.722 174.823 177.713 174.823 176.468C174.823 175.223 175.832 174.214 177.077 174.214ZM177.077 188.863H264.486C265.731 188.863 266.74 189.872 266.74 191.116C266.74 192.361 265.731 193.37 264.486 193.37H177.077C175.832 193.37 174.823 192.361 174.823 191.116C174.823 189.872 175.832 188.863 177.077 188.863ZM188.919 181.539H252.644C253.889 181.539 254.898 182.548 254.898 183.792C254.898 185.037 253.889 186.046 252.644 186.046H188.919C187.674 186.046 186.665 185.037 186.665 183.792C186.665 182.548 187.674 181.539 188.919 181.539ZM194.558 196.187H247.005C248.25 196.187 249.259 197.196 249.259 198.44C249.259 199.685 248.25 200.694 247.005 200.694H194.558C193.313 200.694 192.304 199.685 192.304 198.44C192.304 197.196 193.313 196.187 194.558 196.187Z" fill="#F2F6FB"/>
<path d="M220.5 132.447C228.908 132.447 235.725 125.636 235.725 117.235C235.725 108.834 228.908 102.023 220.5 102.023C212.091 102.023 205.274 108.834 205.274 117.235C205.274 125.636 212.091 132.447 220.5 132.447Z" fill="#474BFF"/>
<path d="M220.494 117.083C218.958 117.083 217.713 115.856 217.713 114.342C217.713 112.828 218.958 111.601 220.494 111.601C222.03 111.601 223.275 112.828 223.275 114.342C223.275 115.856 222.03 117.083 220.494 117.083ZM220.494 118.453C223.278 118.453 225.534 120.677 225.534 123.421H215.453C215.453 120.677 217.71 118.453 220.494 118.453Z" fill="#F2F6FB"/>
<path d="M236.964 145.405H204.036C202.791 145.405 201.782 146.414 201.782 147.659C201.782 148.903 202.791 149.912 204.036 149.912H236.964C238.208 149.912 239.217 148.903 239.217 147.659C239.217 146.414 238.208 145.405 236.964 145.405Z" fill="#F2F6FB"/>
<path d="M243.493 138.081H197.506C196.262 138.081 195.253 139.09 195.253 140.334C195.253 141.579 196.262 142.588 197.506 142.588H243.493C244.738 142.588 245.747 141.579 245.747 140.334C245.747 139.09 244.738 138.081 243.493 138.081Z" fill="#F2F6FB"/>
<path d="M157.02 448.015L156.846 448.102C155.932 448.581 154.756 448.319 154.321 447.492L103.348 353.861C102.869 352.99 103.261 351.902 104.175 351.423L104.349 351.336C105.263 350.857 106.439 351.118 106.874 351.945L119.498 375.103C127.725 390.251 135.952 405.356 144.222 420.504L157.847 445.49C158.326 446.361 157.934 447.492 157.02 448.015Z" fill="#D8DEED"/>
<path d="M32.0469 349.812H63.954C83.281 349.812 102.608 349.812 121.892 349.812H151.492C152.536 349.812 153.45 350.683 153.45 351.728V351.945C153.45 352.99 152.58 353.86 151.492 353.86H31.9598C30.9151 353.86 30.001 352.99 30.001 351.945V351.728C30.001 350.683 30.9151 349.812 32.0469 349.812Z" fill="#D8DEED"/>
<path d="M14.8963 445.49L28.521 420.504C36.7481 405.356 44.9752 390.251 53.2457 375.103L65.8693 351.945C66.3046 351.118 67.4799 350.814 68.394 351.336L68.5681 351.423C69.4822 351.902 69.874 353.034 69.3952 353.861L18.4222 447.492C17.9869 448.319 16.8116 448.624 15.8975 448.102L15.7234 448.015C14.8093 447.492 14.4175 446.361 14.8963 445.49Z" fill="#D8DEED"/>
<path d="M18.5093 226.015L22.6446 259.445C25.1693 279.686 27.6504 299.928 30.1752 320.125L34.0058 351.118C34.1363 352.206 33.3963 353.295 32.3516 353.425L32.134 353.469C31.0893 353.599 30.1316 352.816 29.9575 351.641L14.4175 226.45C14.2869 225.362 15.0269 224.274 16.0716 224.143L16.2893 224.099C17.3775 223.969 18.3787 224.839 18.5093 226.015Z" fill="#D8DEED"/>
<path d="M285.301 447.841L285.475 447.928C286.389 448.406 287.565 448.145 288 447.318L338.973 353.686C339.452 352.816 339.06 351.728 338.146 351.249L337.972 351.162C337.058 350.683 335.882 350.944 335.447 351.771L322.824 374.929C314.596 390.077 306.369 405.182 298.099 420.33L284.474 445.316C283.995 446.186 284.387 447.318 285.301 447.841Z" fill="#D8DEED"/>
<path d="M411.841 349.638H379.934C360.607 349.638 341.28 349.638 321.996 349.638H292.396C291.352 349.638 290.438 350.509 290.438 351.553V351.771C290.438 352.816 291.308 353.686 292.396 353.686H411.928C412.973 353.686 413.887 352.816 413.887 351.771V351.553C413.887 350.509 412.973 349.638 411.841 349.638Z" fill="#D8DEED"/>
<path d="M413.756 341.15V309.852C413.756 290.873 413.756 271.938 413.756 253.003V223.969C413.756 222.924 395.692 222.053 373.971 222.053H369.444C347.766 222.053 329.658 222.924 329.658 223.969V341.237C329.658 342.282 347.722 343.152 369.444 343.152H373.971C395.648 343.152 413.756 342.238 413.756 341.15Z" fill="#D8DEED"/>
<path d="M427.425 445.316L413.8 420.33C405.573 405.182 397.346 390.077 389.075 374.929L376.452 351.771C376.016 350.944 374.841 350.639 373.927 351.162L373.753 351.249C372.839 351.727 372.447 352.859 372.926 353.686L423.899 447.318C424.334 448.145 425.509 448.45 426.424 447.927L426.598 447.84C427.512 447.318 427.904 446.186 427.425 445.316Z" fill="#D8DEED"/>
<path d="M248.954 448.082H318.122C319.211 448.082 320.081 447.211 320.081 446.123C320.081 445.035 319.211 444.164 318.122 444.164H248.954C247.866 444.164 246.995 445.035 246.995 446.123C246.995 447.211 247.866 448.082 248.954 448.082ZM376.278 448.082C377.366 448.082 378.236 447.329 378.236 446.424V445.822C378.236 444.918 377.322 444.164 376.278 444.164H331.66C330.572 444.164 329.701 444.918 329.701 445.822V446.424C329.701 447.329 330.615 448.082 331.66 448.082H376.278Z" fill="#A339FF"/>
<path d="M248.303 444.306C248.531 444.215 248.78 444.164 249.041 444.164H318.209C318.488 444.164 318.752 444.221 318.991 444.324C319.049 444.127 319.08 443.917 319.08 443.699L317.631 417.182L287.652 416.741C287.173 416.741 286.738 416.873 286.346 417.182C281.384 422.565 276.639 425.565 273.2 427.33C270.545 428.698 261.665 432.492 257.66 434.345C256.429 434.903 254.606 435.905 252.191 437.35C251.618 437.693 251.1 438.122 250.657 438.623C249.405 440.035 248.62 441.301 248.301 442.42C248.214 442.685 248.214 442.905 248.171 443.17C248.127 443.39 248.171 443.611 248.171 443.832V443.876C248.201 444.026 248.246 444.17 248.303 444.306ZM330.814 444.365C331.091 444.237 331.408 444.164 331.747 444.164H375.717L365.613 417.22L334.446 421.442L330.814 444.365Z" fill="#474961"/>
<path d="M320.519 341.015C321.774 341.639 322.946 342.222 324.035 342.764L324.26 346.208C324.521 350.729 324.826 354.7 325.174 358.2C325.435 360.952 328.787 392.13 330.006 403.572C330.267 406.167 332.139 408.368 334.707 409.076C338.581 410.177 341.062 410.806 351.118 411.16C351.771 411.199 352.424 411.16 353.033 411.121C362.784 410.334 367.659 408.919 368.747 408.447C370.14 407.857 370.88 407.582 371.62 406.914C374.232 404.633 374.058 401.016 374.101 399.679C374.321 391.16 374.913 368.22 375.093 348.484C375.356 348.485 375.62 348.486 375.886 348.487C378.363 348.487 380.746 347.442 382.942 345.614C385.746 343.263 395.605 335.49 396.216 319.134C396.641 307.756 394.66 299.112 390.272 293.204C390.272 293.161 384.81 284.542 381.492 284.542H332.62C329.224 284.658 314.061 285.051 287.129 285.721L287.145 285.825C286.995 285.822 286.845 285.818 286.694 285.815C275.681 285.613 266.758 294.393 267.019 305.116C267.019 305.197 267.019 305.238 267.019 305.319C267.715 338.58 275.855 385.963 276.421 401.986C276.465 402.593 276.639 403.928 277.553 405.345C280.382 409.674 286.999 408.703 302.452 409.067C315.598 409.391 320.908 410.362 323.607 406.801C325.087 404.859 325.044 402.634 325 401.622C323.924 381.321 322.357 360.829 320.519 341.015Z" fill="#474BFF"/>
<path opacity="0.176986" d="M320.613 340.931C321.868 341.555 323.04 342.138 324.128 342.68L322.133 312.182C322.089 310.413 321.871 299.719 330.534 292.917C336.846 288.002 344.507 287.688 349.6 287.491C357.435 287.177 363.529 289.221 364.704 289.614C366.184 290.125 366.924 290.401 367.664 290.755C376.109 294.844 375.456 314.502 375.369 318.08C375.282 322.602 375.239 329.639 375.239 337.817C375.239 341.144 375.219 344.694 375.186 348.354C375.418 348.355 375.652 348.355 375.886 348.356C378.363 348.356 380.746 347.311 382.942 345.483C385.746 343.133 395.605 335.359 396.216 319.003C396.641 307.625 394.66 298.982 390.272 293.074C390.272 293.03 384.81 284.411 381.492 284.411H332.62C329.312 284.524 314.465 284.97 288.081 285.749C291.298 285.821 294.488 285.892 297.713 285.963C307.507 286.206 315.647 293.449 316.691 302.918C318.074 315.129 319.402 327.883 320.613 340.931Z" fill="#444444"/>
<path d="M320.325 234.268C313.926 229.48 297.385 216.465 297.385 216.465C291.987 221.34 304.959 230.09 304.959 230.09" fill="#482D1F"/>
<path d="M290.792 214.615C294.038 209.192 293.108 202.056 288.233 197.668C282.695 192.681 274.163 193.128 269.176 198.666C264.189 204.205 264.636 212.737 270.175 217.724C274.934 222.009 281.905 222.282 286.936 218.758L302.397 232.679C302.754 233.001 303.305 232.972 303.627 232.615L306.248 229.703C306.57 229.346 306.541 228.795 306.184 228.474L290.792 214.615ZM285.997 213.812C282.619 217.564 276.839 217.867 273.087 214.489C269.336 211.111 269.033 205.331 272.411 201.579C275.789 197.827 281.569 197.524 285.321 200.902C289.072 204.281 289.375 210.06 285.997 213.812Z" fill="#474961"/>
<path d="M329.865 219.991C329.212 221.703 328.683 223.46 328.278 225.263C325.87 235.984 321.935 242.298 324.645 247.43C326.245 250.457 329.318 251.366 331.702 251.62L333.339 272.081C333.988 277.621 334.422 280.703 334.64 281.328C334.599 286.449 341.033 285.146 353.011 285.146C366.948 285.146 385.54 287.022 386.648 281.865C387.647 277.217 387.407 267.467 385.929 252.616C390.772 251.349 394.335 249.158 395.244 247.385C397.8 242.462 394.867 234.503 391.598 225.572C387.658 214.865 385.521 209.598 380.702 205.246C376.71 201.651 372.348 200.41 368.673 201.103C365.707 199.91 362.449 199.381 359.083 199.678L349.542 200.52C339.38 201.34 331.507 209.841 329.865 219.991Z" fill="#A339FF"/>
<path opacity="0.176986" d="M329.566 220.627C329.005 222.166 328.544 223.742 328.182 225.355C325.774 236.076 321.838 242.39 324.548 247.522C326.129 250.512 329.148 251.435 331.518 251.703L331.414 250.403L331.384 249.969L329.493 226.669L329.438 225.887C329.289 224.11 329.338 222.347 329.566 220.627Z" fill="#444444"/>
<path d="M363.276 199.733C362.522 197.204 361.439 193.025 360.025 187.195L359.9 184.742C359.987 184.263 360.068 184.248 360.503 184.117C361.635 183.813 362.244 183.078 363.027 182.207C364.464 180.553 364.856 178.116 364.159 175.896C363.289 173.763 361.025 172.152 358.936 172.326C358.152 172.413 357.412 172.718 356.716 173.153L356.672 173.197C356.454 173.414 356.15 173.458 355.845 173.501C355.105 173.501 354.496 172.979 354.452 172.239L354.06 160.878C354.06 160.138 353.494 159.616 352.754 159.616C351.144 159.616 349.577 159.528 347.966 159.18C347.749 159.18 347.574 159.137 347.4 159.137C345.833 158.963 337.432 158.44 332.905 164.665C332.513 165.274 332.122 165.884 331.817 166.493C331.033 168.06 330.685 169.801 330.816 171.63L331.294 179.552C331.382 180.336 331.469 181.119 331.643 181.946C333.732 191.74 338.172 198.531 341.916 198.748C343.831 198.792 345.746 198.574 347.618 198.008C347.851 197.892 347.703 197.983 350.319 196.925L350.853 199.806C345.656 200.652 342.764 202.306 342.447 202.468C343.373 203.49 343.502 203.835 344.301 204.48C353.243 211.706 367.756 202.192 369.587 200.973C367.355 200.399 365.25 199.997 363.276 199.733ZM325.09 259.713L324.392 264.715L289.829 271.239C288.808 271.063 287.822 270.966 286.87 270.938C283.597 270.802 280.779 271.437 278.87 271.936C274.097 271.709 269.37 271.437 264.643 271.21C260.779 270.303 252.143 268.942 251.87 274.386C251.87 274.386 255.598 275.384 260.643 276.7C261.823 277.008 263.077 277.334 264.372 277.671C271.063 279.981 279.818 284.744 284.859 286.36L336.5 284.558C335.721 283.601 335.139 282.515 334.793 281.293C334.575 280.668 334.141 277.586 333.492 272.046L332.867 264.242C342.299 269.605 351.057 274.092 359.143 277.703C364.043 279.892 370.032 281.608 374.838 283.249C386.036 285.529 388.151 281.496 389.43 280.174C390.918 278.635 395.876 274.264 393.642 249.171C389.586 252.22 379.891 255.189 370.218 252.56C367.718 251.88 365.483 251.238 363.516 250.634L363.673 252.148L311.966 230.445C311.842 230.349 311.707 230.263 311.562 230.191L296.631 223.096C295.499 222.573 294.106 223.052 293.54 224.184L293.018 225.185C292.488 226.287 292.913 227.541 293.901 228.16C292.85 227.939 291.808 228.435 291.364 229.434L290.842 230.435C290.397 231.358 290.624 232.39 291.291 233.064C290.722 233.236 290.212 233.623 289.899 234.194L289.325 235.167C288.699 236.311 289.15 237.686 290.25 238.31L298.045 242.527C307.568 248.917 316.583 254.645 325.09 259.713ZM287.523 408.699L287.129 417.312L317.631 419.667L317.498 409.234C314.162 409.453 309.427 409.106 302.544 408.937C296.139 408.786 291.252 408.864 287.523 408.699ZM335.297 409.086L334.462 422.275L365.821 418.55L364.356 409.51C361.776 410.028 358.08 410.59 353.125 410.99C352.516 411.029 351.863 411.069 351.21 411.029C341.591 410.691 338.903 410.101 335.297 409.086Z" fill="#BF865F"/>
<path d="M361.132 192.01C361.636 194.253 362.083 196.109 362.392 197.051C363.08 197.051 363.771 197.051 364.464 197.051C365.504 197.051 369.265 196.656 372.778 196.441C372.778 196.441 373.039 196.441 373.257 196.398C374.389 196.224 375.477 196.05 376.565 195.484C376.565 195.484 376.913 195.353 377.218 195.092C383.356 190.043 384.705 182.817 382.093 178.768C380.222 175.939 376.565 174.851 376.043 174.677C375.346 174.459 374.65 174.372 374.04 174.328C373.803 173.615 373.565 172.865 373.327 172.112C373.264 169.571 372.699 166.195 370.471 163.403C369.557 162.227 368.338 161.357 367.032 160.704C363.55 158.963 360.895 159.833 354.017 159.659C352.624 159.659 347.816 159.047 347.642 159.047C340.551 158.598 335.592 160.558 332.767 164.926C334.861 164.607 336.562 164.607 337.867 164.926C346.312 167.016 348.793 181.641 352.667 181.032C352.704 181.027 352.744 181.021 352.785 181.012L352.755 180.988L354.626 175.852C355.062 174.807 355.802 173.98 356.672 173.284C357.369 172.848 358.109 172.544 358.892 172.457C360.982 172.283 363.245 173.893 364.116 176.026C364.257 176.391 364.363 176.764 364.434 177.14C364.676 178.988 364.199 180.858 363.027 182.207C362.962 182.28 362.895 182.352 362.826 182.422C362.823 182.427 362.82 182.431 362.817 182.435C361.905 183.376 360.719 184.023 359.423 184.279C359.961 187.167 360.815 190.937 361.132 192.01ZM337.432 177.245C338.303 177.463 339.739 177.68 340.915 177.376C342.96 176.94 341.045 175.721 339.173 175.634C338.303 175.591 337.606 175.939 337.171 176.287C336.866 176.592 336.997 177.158 337.432 177.245ZM330.08 177.246C330.974 177.474 332.353 177.746 333.591 177.42C335.689 176.93 333.747 175.702 331.906 175.644C330.941 175.598 330.317 175.958 329.867 176.303C329.499 176.598 329.635 177.154 330.08 177.246Z" fill="#482D1F"/>
<path opacity="0.2" d="M325.761 259.983C325.548 259.858 325.334 259.733 325.121 259.608L324.39 264.758L289.832 271.239C288.81 271.063 287.823 270.966 286.87 270.938C283.597 270.802 280.779 271.437 278.87 271.936C274.097 271.709 269.37 271.437 264.643 271.21C260.779 270.303 252.143 268.942 251.87 274.386C251.87 274.386 255.598 275.384 260.643 276.7C261.823 277.007 263.077 277.334 264.372 277.671C271.063 279.98 279.818 284.744 284.859 286.36L336.5 284.558C335.721 283.601 335.139 282.515 334.793 281.293C334.575 280.668 334.141 277.585 333.492 272.045L332.906 264.731L332.865 264.566L332.893 264.56L332.867 264.243L325.761 259.983Z" fill="#8C2A00"/>
<path d="M232.256 258.442C231.86 259.778 232.596 261.154 233.933 261.549L293.747 279.928C295.083 280.323 296.459 279.587 296.854 278.251C297.249 276.914 296.513 275.538 295.177 275.143L235.363 256.765C234.07 256.371 232.651 257.106 232.256 258.442Z" fill="#474961"/>
<path d="M350.337 196.871L353.749 195.346L350.978 200.431L350.337 196.871Z" fill="#482D1F"/>
<path d="M333.253 182.555C333.645 182.033 333.515 180.858 333.384 180.074C333.34 179.508 332.818 179.16 332.339 179.16C332.035 179.204 331.643 179.378 331.556 179.987C331.251 181.424 332.731 183.426 333.253 182.555ZM340.436 182.599C340.871 182.077 340.697 180.858 340.566 180.118C340.523 179.552 340 179.204 339.522 179.204C339.217 179.247 338.825 179.421 338.738 180.031C338.433 181.467 339.87 183.47 340.436 182.599Z" fill="#482D1F"/>
<path d="M334.011 181.832L333.623 179.297C333.586 179.06 333.749 178.838 333.987 178.801C334.224 178.765 334.447 178.928 334.483 179.165L334.876 181.727L334.881 181.781L335.005 186.393C335.022 186.444 335.064 186.478 335.12 186.482C335.647 186.416 336.325 186.352 337.156 186.292C337.396 186.275 337.604 186.456 337.622 186.695C337.639 186.935 337.458 187.143 337.219 187.161C336.386 187.221 335.712 187.284 335.2 187.35L335.152 187.353C334.644 187.362 334.231 187.008 334.143 186.528L334.135 186.461L334.011 181.832Z" fill="#482D1F"/>
<path d="M337.519 190.696C337.824 190.652 338.607 190.478 338.782 189.999C338.782 189.912 338.869 189.782 338.825 189.694C338.695 189.477 337.345 189.477 337.345 189.477C335.56 189.52 335.125 189.433 334.995 189.651C334.951 189.782 334.951 189.956 335.256 190.347C335.647 191.087 337.084 190.826 337.519 190.696Z" fill="#482D1F"/>
<path d="M363.891 250.183L361.508 228.178C361.469 227.82 361.728 227.498 362.087 227.459C362.445 227.42 362.767 227.679 362.806 228.038L365.189 250.043C365.228 250.401 364.969 250.723 364.61 250.762C364.252 250.801 363.93 250.542 363.891 250.183Z" fill="#482D1F"/>
<path d="M168.674 444.165H108.291C107.19 444.165 106.308 445.035 106.308 446.123C106.308 447.212 107.19 448.082 108.291 448.082H178.325H228.19C229.279 448.082 230.149 447.212 230.149 446.123C230.149 445.035 229.279 444.165 228.19 444.165H168.674Z" fill="#DE3190"/>
<path d="M228.776 444.207C228.865 444.032 228.932 443.843 228.974 443.642V443.599C228.974 443.381 229.018 443.163 228.974 442.946C228.931 442.684 228.931 442.467 228.843 442.206C228.278 440.247 226.754 438.593 225.753 437.679C225.622 437.548 225.535 437.504 225.405 437.417C223.489 436.242 221.531 435.154 219.485 434.24C215.48 432.411 206.6 428.668 203.945 427.319C200.506 425.577 195.761 422.617 190.799 417.307C190.407 417.002 189.972 416.871 189.493 416.871L159.588 417.046C158.326 417.046 157.325 418.09 157.412 419.396L157.693 429.764C156.427 429.166 155.139 428.504 153.691 427.667C151.632 426.491 148.742 424.576 145.501 421.703C143.705 420.136 141.866 418.569 140.07 417.002L112.96 416.654L107.298 444.536C107.625 444.302 108.028 444.164 108.466 444.164H168.848H228.365C228.506 444.164 228.643 444.179 228.776 444.207Z" fill="#474961"/>
<path opacity="0.176986" d="M177.87 444.164H228.298C228.411 443.966 228.495 443.746 228.544 443.512V443.468C228.544 443.25 228.588 443.033 228.544 442.815C228.5 442.554 228.5 442.336 228.413 442.075C227.848 440.116 226.324 438.462 225.323 437.548C225.192 437.417 225.105 437.374 224.975 437.287C223.059 436.112 221.1 435.023 219.055 434.109C215.05 432.281 206.17 428.537 203.515 427.188C200.076 425.447 195.331 422.487 190.369 417.176C189.977 416.872 189.542 416.741 189.063 416.741L159.158 416.915C157.896 416.915 157.319 417.832 157.406 419.138L157.7 429.989C160.694 431.375 163.687 432.486 168.56 434.806C170.65 435.807 172.652 436.939 174.611 438.201C175.569 439.072 177.223 440.856 177.745 442.946C177.832 443.294 177.832 443.642 177.876 443.947C177.876 444.02 177.874 444.093 177.87 444.164H177.87Z" fill="#444444"/>
<path d="M163.435 422.933C163.584 422.95 163.735 422.959 163.888 422.959L192.155 422.656H194.44C196.686 422.656 198.583 420.924 198.699 418.359C198.97 413.183 199.319 406.371 199.745 398.497C200.907 378.636 201.526 372.311 202.223 357.006C202.339 354.44 202.455 352.14 202.533 349.973C202.843 339.666 203.656 330.023 205.243 317.417C206.134 310.428 206.56 306.093 206.599 302.421C206.637 299.015 205.747 295.653 204.043 292.867C203.191 291.495 202.223 290.301 201.061 289.284C198.08 286.674 194.091 284.462 190.916 284.683C182.687 284.722 174.457 284.727 166.227 284.757C164.503 284.348 162.58 284.146 160.458 284.15L156.331 284.194C156.355 284.144 138.978 284.052 104.201 283.918C93.4285 275.461 81.5253 271.915 68.4919 273.28C63.2899 273.825 58.5765 275.309 54.3516 277.734C49.6877 280.374 45.6153 284.152 42.1347 289.069C39.9886 291.313 33.5457 301.556 34.8253 317.157C35.0729 320.03 35.6094 326.429 39.0761 332.523C42.7078 338.878 47.165 343.536 54.6348 346.191C61.238 348.542 68.9554 349.369 76.9618 348.455C88.2422 346.307 101.289 344.522 116.101 343.1C112.101 354.047 109.51 360.928 108.327 363.743C106.552 367.922 101.735 385.964 99.9252 399.786C99.0402 406.545 99.3492 412.522 100.852 417.716C101.769 420.883 104.671 423.062 107.968 423.059L145.016 423.02L161.647 422.933H163.435Z" fill="#10B981"/>
<path opacity="0.176986" d="M165.627 284.759C169.298 285.543 172.099 287.23 174.031 289.82C178.201 295.413 177 300.79 177 304.098V304.316C176.959 307.929 176.505 312.195 175.597 319.072C173.905 331.478 173.038 340.924 172.708 351.11C172.625 353.199 172.501 355.506 172.378 358.031C171.676 373.049 170.974 379.274 169.736 398.862C169.241 406.61 168.87 413.27 168.622 418.406C168.498 420.931 166.476 422.934 164.082 422.934H163.422C163.576 422.955 163.731 422.966 163.888 422.966L192.155 422.656H194.44C196.686 422.656 198.699 420.797 198.699 417.938C198.97 412.779 199.319 405.989 199.745 398.14C200.907 378.341 201.526 372.035 202.223 356.779C202.339 354.221 202.455 351.928 202.533 349.768C202.843 339.493 203.656 329.881 205.243 317.314C206.134 310.347 206.56 306.025 206.599 302.366C206.637 298.97 205.747 295.619 204.043 292.841C203.191 291.474 202.223 290.283 201.061 289.269C198.08 286.668 194.091 284.463 190.916 284.683C182.486 284.723 174.057 284.727 165.627 284.759Z" fill="#444444"/>
<path d="M98.1332 204.562C101.92 207.516 104.979 212.062 105.552 213.729C110.305 227.554 116.03 227.006 116.487 230.001C117.171 234.481 111.926 235.026 111.926 235.026C109.49 235.26 107.638 235.438 106.37 235.56L106.069 247.926L106.041 248.363L105.534 270.028L105.42 274.256C105.432 274.605 105.4 274.911 105.368 275.26C105.338 275.653 105.307 276.003 105.277 276.396C105.182 277.401 104.998 278.365 104.727 279.333C104.61 279.729 104.536 280.124 104.376 280.521C68.1526 281.786 49.9305 279.258 49.7097 272.935L50.6123 235.198L45.1186 235.012C45.1186 235.012 39.1478 234.61 39.8295 230.103C40.2852 227.091 46.8335 227.336 51.9552 213.292C52.6584 211.364 56.957 205.544 62.0364 202.549C62.1971 202.454 62.3587 202.362 62.5208 202.273C65.9878 200.315 70.011 199.237 74.275 199.339L84.3019 199.599C89.5572 199.703 94.346 201.546 98.1332 204.562Z" fill="#DE3190"/>
<path opacity="0.176986" d="M102.847 209.346C104.285 211.181 105.286 212.872 105.59 213.755C110.343 227.58 116.03 227.006 116.487 230.001C117.171 234.481 111.988 235.013 111.988 235.013L106.513 235.543L106.804 223.578L106.82 222.793C106.957 217.809 105.475 213.16 102.847 209.346Z" fill="#444444"/>
<mask id="mask0" style="mask-type:alpha" maskUnits="userSpaceOnUse" x="32" y="157" width="130" height="128">
<path d="M78.0739 181.405C77.9953 181.333 77.9174 181.257 77.8408 181.178C76.4621 179.725 75.6552 177.416 76.4158 175.183C77.1241 173.033 79.2336 171.291 81.3252 171.379C82.5032 171.415 85.6658 172.139 85.6451 171.09L85.4155 159.987C85.4017 159.288 85.9462 158.69 86.6479 158.677C88.1859 158.62 89.6942 158.429 91.3163 157.988C91.4941 157.963 91.6718 157.938 91.8495 157.913C93.319 157.674 101.567 156.663 106.293 162.479C106.724 162.961 107.102 163.524 107.471 164.173C108.321 165.658 108.755 167.361 108.746 169.104L108.715 176.865C108.677 177.646 108.638 178.428 108.513 179.2C107.013 188.857 103.011 195.678 99.3789 196.083C98.9323 196.167 96.597 196.315 93.8194 195.675C93.5663 195.605 93.7683 195.712 90.1464 194.44L89.5481 200.329C87.8198 199.878 86.0082 199.622 84.1375 199.585L76.6591 199.392L77.604 190.433L78.0135 186.551L78.0739 181.405ZM105.617 265.337L105.984 249.722L106.022 248.257L106.044 247.921L106.219 240.757L106.356 235.573L109.895 235.232L122.111 268.474C123.252 268.69 124.573 268.959 126.121 269.288C128.611 269.275 130.673 269.332 132.306 269.459C138.919 269.976 144.6 270.192 151.252 274.145C163.379 281.351 164.324 284.669 154.089 284.099L133.211 283.978C132.951 284.073 132.691 284.134 132.432 284.157C132.432 284.157 101.921 283.888 40.9003 283.351C38.4459 283.33 36.141 282.168 34.6629 280.209C33.952 279.266 33.4357 277.542 33.1142 275.036C32.1175 269.747 34.9655 262.174 40.377 247.462C42.0979 242.798 43.7278 238.558 45.2617 234.789L78.9913 236.066C76.3896 242.529 71.7998 257.903 70.4993 260.259C70.4963 260.261 70.4932 260.262 70.4901 260.264C80.2032 261.572 91.841 263.195 105.617 265.337Z" fill="white"/>
</mask>
<g mask="url(#mask0)">
<path d="M78.0739 181.405C77.9953 181.333 77.9174 181.257 77.8408 181.178C76.4621 179.725 75.6552 177.416 76.4158 175.183C77.1241 173.033 79.2336 171.291 81.3252 171.379C82.5032 171.415 85.6658 172.139 85.6451 171.09L85.4155 159.987C85.4017 159.288 85.9462 158.69 86.6479 158.677C88.1859 158.62 89.6942 158.429 91.3163 157.988C91.4941 157.963 91.6718 157.938 91.8495 157.913C93.319 157.674 101.567 156.663 106.293 162.479C106.724 162.961 107.102 163.524 107.471 164.173C108.321 165.658 108.755 167.361 108.746 169.104L108.715 176.865C108.677 177.646 108.638 178.428 108.513 179.2C107.013 188.857 103.011 195.678 99.3789 196.083C98.9323 196.167 96.597 196.315 93.8194 195.675C93.5663 195.605 93.7683 195.712 90.1464 194.44L89.5481 200.329C87.8198 199.878 86.0082 199.622 84.1375 199.585L76.6591 199.392L77.604 190.433L78.0135 186.551L78.0739 181.405ZM105.617 265.337L105.984 249.722L106.022 248.257L106.044 247.921L106.219 240.757L106.356 235.573L109.895 235.232L122.111 268.474C123.252 268.69 124.573 268.959 126.121 269.288C128.611 269.275 130.673 269.332 132.306 269.459C138.919 269.976 144.6 270.192 151.252 274.145C163.379 281.351 164.324 284.669 154.089 284.099L133.211 283.978C132.951 284.073 132.691 284.134 132.432 284.157C132.432 284.157 101.921 283.888 40.9003 283.351C38.4459 283.33 36.141 282.168 34.6629 280.209C33.952 279.266 33.4357 277.542 33.1142 275.036C32.1175 269.747 34.9655 262.174 40.377 247.462C42.0979 242.798 43.7278 238.558 45.2617 234.789L78.9913 236.066C76.3896 242.529 71.7998 257.903 70.4993 260.259C70.4963 260.261 70.4932 260.262 70.4901 260.264C80.2032 261.572 91.841 263.195 105.617 265.337Z" fill="#F2A98A"/>
<path d="M89.8237 197.665L85.7791 192.536L90.1608 194.438L89.8237 197.665Z" fill="#482D1F"/>
<path d="M105.869 176.448C105.919 175.852 106.394 175.409 106.991 175.413C107.357 175.387 107.696 175.637 107.878 176.262C108.26 177.784 106.812 180.072 106.151 179.162C105.743 178.598 105.834 177.27 105.869 176.448ZM96.255 176.248C96.3052 175.652 96.7798 175.209 97.3775 175.212C97.7434 175.187 98.0826 175.436 98.2642 176.062C98.6464 177.584 97.1978 179.871 96.5366 178.961C96.1295 178.397 96.2206 177.07 96.255 176.248Z" fill="#482D1F"/>
<path d="M103.635 176.913L104.32 181.096C104.359 181.628 103.99 182.146 103.482 182.181C103.183 182.226 102.991 182.24 102.217 182.279C101.871 182.297 101.634 182.311 101.354 182.33C101.114 182.347 100.906 182.166 100.889 181.926C100.873 181.687 101.054 181.479 101.293 181.462C101.579 181.442 101.821 181.428 102.172 181.41C102.915 181.372 103.096 181.359 103.389 181.316C103.408 181.314 103.46 181.242 103.457 181.197L102.776 177.054C102.737 176.816 102.898 176.593 103.135 176.554C103.372 176.515 103.596 176.676 103.635 176.913Z" fill="#482D1F"/>
<path d="M100.893 184.997C100.597 184.922 99.8699 184.639 99.7539 184.17C99.7472 184.075 99.6959 183.935 99.734 183.885C99.8829 183.636 100.434 183.788 101.189 183.878C102.53 184.023 103.647 183.945 103.647 183.945C103.647 183.945 103.331 184.779 103.141 185.031C102.725 185.632 101.361 185.155 100.893 184.997Z" fill="#482D1F"/>
<path d="M89.7276 174.431C90.505 172.198 92.5521 170.528 95.0602 170.353C98.4177 170.118 101.33 172.65 101.565 176.007C101.568 176.056 101.571 176.104 101.573 176.153C101.628 176.142 101.685 176.138 101.743 176.142L102.969 176.228C103.238 173.306 105.591 170.926 108.613 170.714C111.97 170.48 114.882 173.011 115.117 176.369C115.352 179.726 112.82 182.638 109.463 182.873C106.213 183.1 103.38 180.735 102.989 177.538L101.652 177.445C101.6 177.441 101.549 177.432 101.501 177.416C101.057 180.144 98.7869 182.31 95.9104 182.512C92.5529 182.746 89.6408 180.215 89.4061 176.857C89.3787 176.465 89.3889 176.08 89.4338 175.703L86.2645 174.925C85.9143 174.839 85.7001 174.485 85.7861 174.135C85.8721 173.785 86.2257 173.571 86.5759 173.657L89.7276 174.431ZM104.254 176.995C104.255 177.039 104.258 177.083 104.261 177.128C104.446 179.766 106.734 181.755 109.372 181.57C112.01 181.386 113.999 179.098 113.814 176.46C113.63 173.822 111.342 171.833 108.704 172.017C106.167 172.194 104.23 174.317 104.249 176.826C104.257 176.873 104.259 176.922 104.256 176.972C104.255 176.98 104.254 176.987 104.254 176.995ZM95.8193 181.209C98.4574 181.024 100.446 178.736 100.262 176.098C100.077 173.46 97.7893 171.471 95.1513 171.656C92.5133 171.84 90.5243 174.128 90.7088 176.766C90.8932 179.404 93.1813 181.393 95.8193 181.209Z" fill="#482D1F"/>
<path d="M65.5945 263.974C65.278 264.147 64.8813 264.03 64.7086 263.714C64.5358 263.397 64.6524 263.001 64.9689 262.828L70.4101 259.858C70.7266 259.686 71.1233 259.802 71.296 260.119C71.4688 260.435 71.3522 260.832 71.0357 261.005L65.5945 263.974ZM79.4198 236.532C79.2789 236.864 78.8956 237.019 78.5637 236.878C78.2317 236.737 78.0768 236.354 78.2176 236.022L84.0474 222.281C84.1882 221.949 84.5715 221.794 84.9035 221.935C85.2355 222.075 85.3904 222.459 85.2496 222.791L79.4198 236.532Z" fill="#482D1F"/>
<path opacity="0.2" d="M105.612 265.463L106.011 248.402L106.039 247.966L106.341 235.566L109.883 235.223L122.073 268.554L105.612 265.463Z" fill="#8C2A00"/>
</g>
<path d="M86.338 174.572C86.1598 174.25 85.4773 173.12 84.232 172.246C84.1112 172.146 83.1656 171.565 81.9876 171.529C79.896 171.44 77.7864 173.188 77.0782 175.346C76.3175 177.586 77.0812 179.898 78.4599 181.356C79.5244 182.482 80.817 182.927 81.6078 183.119C81.6001 184.597 81.6307 186.204 81.6998 187.938C78.324 187.717 75.3493 186.246 72.7757 183.524C71.7115 182.406 68.8858 179.307 68.0055 174.356C67.9044 173.727 67.7037 172.524 67.6861 171.034C60.988 171.144 55.5711 168.152 53.579 163.908C51.7231 159.91 53.0112 155.124 53.1943 154.447C55.0318 147.628 61.2187 147.706 61.7481 147.693C61.7481 147.693 70.6673 144.594 77.7175 158.86C77.722 158.869 77.7265 158.878 77.731 158.888C79.7521 158.729 82.2037 158.872 85.9389 158.646C87.3037 158.571 89.2944 158.237 91.7391 157.881C91.9123 157.9 94.0023 157.687 94.18 157.662C95.0631 157.662 98.0221 157.383 101.848 159.097C105.675 160.81 107.087 163.387 107.03 163.495C106.921 163.702 104.967 164.585 103.801 164.857C100.527 165.607 97.683 165.177 95.9353 164.73C95.4753 165.776 94.8238 166.977 93.9559 168.155C91.4434 171.655 88.2766 173.467 86.3014 174.354C86.3134 174.426 86.3256 174.499 86.338 174.572Z" fill="#482D1F"/>
<path d="M116.747 343.452L129.373 330.202C129.622 329.941 129.612 329.528 129.351 329.279C129.09 329.031 128.676 329.041 128.428 329.302L115.801 342.551C115.552 342.813 115.562 343.226 115.823 343.475C116.085 343.723 116.498 343.713 116.747 343.452Z" fill="#482D1F"/>
<path d="M388.988 283.541H40.7529C39.07 283.541 37.7058 284.905 37.7058 286.588C37.7058 288.271 39.07 289.635 40.7529 289.635H388.988C390.671 289.635 392.035 288.271 392.035 286.588C392.035 284.905 390.671 283.541 388.988 283.541Z" fill="#D8DEED"/>
<path d="M408.576 10.1763H265.365C260.557 10.1763 256.659 14.074 256.659 18.8822V124.659C256.659 129.467 260.557 133.365 265.365 133.365H408.576C413.385 133.365 417.282 129.467 417.282 124.659V18.8822C417.282 14.074 413.385 10.1763 408.576 10.1763Z" fill="#F2F6FB"/>
<path d="M268.34 51.5923H323.929C325.131 51.5923 326.106 52.5667 326.106 53.7688V55.3783C326.106 56.5804 325.131 57.5548 323.929 57.5548H268.34C267.138 57.5548 266.163 56.5804 266.163 55.3783V53.7688C266.163 52.5667 267.138 51.5923 268.34 51.5923ZM268.34 61.2814H331.422C332.624 61.2814 333.599 62.2558 333.599 63.4579V65.0674C333.599 66.2695 332.624 67.2439 331.422 67.2439H268.34C267.138 67.2439 266.163 66.2695 266.163 65.0674V63.4579C266.163 62.2558 267.138 61.2814 268.34 61.2814ZM268.34 80.6596H338.915C340.117 80.6596 341.092 81.634 341.092 82.8361V84.4457C341.092 85.6477 340.117 86.6221 338.915 86.6221H268.34C267.138 86.6221 266.163 85.6477 266.163 84.4457V82.8361C266.163 81.634 267.138 80.6596 268.34 80.6596ZM268.34 90.3487H316.437C317.639 90.3487 318.613 91.3232 318.613 92.5252V94.1348C318.613 95.3368 317.639 96.3112 316.437 96.3112H268.34C267.138 96.3112 266.163 95.3368 266.163 94.1348V92.5252C266.163 91.3232 267.138 90.3487 268.34 90.3487ZM268.34 100.038H331.422C332.624 100.038 333.599 101.012 333.599 102.214V103.824C333.599 105.026 332.624 106 331.422 106H268.34C267.138 106 266.163 105.026 266.163 103.824V102.214C266.163 101.012 267.138 100.038 268.34 100.038ZM268.34 109.727H338.915C340.117 109.727 341.092 110.701 341.092 111.903V113.513C341.092 114.715 340.117 115.689 338.915 115.689H268.34C267.138 115.689 266.163 114.715 266.163 113.513V111.903C266.163 110.701 267.138 109.727 268.34 109.727Z" fill="#E1E5F0"/>
<path d="M338.915 42.1609H268.34C267.138 42.1609 266.163 43.1353 266.163 44.3374V45.5323C266.163 46.7343 267.138 47.7087 268.34 47.7087H338.915C340.117 47.7087 341.092 46.7343 341.092 45.5323V44.3374C341.092 43.1353 340.117 42.1609 338.915 42.1609Z" fill="#D8DEED"/>
<path d="M361.029 51.5923H409.403C410.605 51.5923 411.58 52.5667 411.58 53.7688V55.4594C411.58 56.6615 410.605 57.6359 409.403 57.6359H361.029C359.827 57.6359 358.852 56.6615 358.852 55.4594V53.7688C358.852 52.5667 359.827 51.5923 361.029 51.5923ZM361.029 61.4131H394.338C395.54 61.4131 396.515 62.3876 396.515 63.5896V65.2803C396.515 66.4823 395.54 67.4567 394.338 67.4567H361.029C359.827 67.4567 358.852 66.4823 358.852 65.2803V63.5896C358.852 62.3876 359.827 61.4131 361.029 61.4131ZM361.029 71.234H401.871C403.073 71.234 404.047 72.2084 404.047 73.4105V75.1011C404.047 76.3032 403.073 77.2776 401.871 77.2776H361.029C359.827 77.2776 358.852 76.3032 358.852 75.1011V73.4105C358.852 72.2084 359.827 71.234 361.029 71.234ZM361.029 81.0549H386.806C388.008 81.0549 388.982 82.0293 388.982 83.2313V84.922C388.982 86.124 388.008 87.0985 386.806 87.0985H361.029C359.827 87.0985 358.852 86.124 358.852 84.922V83.2313C358.852 82.0293 359.827 81.0549 361.029 81.0549Z" fill="#E1E5F0"/>
<path d="M256.659 17.1432C256.659 13.2955 259.777 10.1763 263.625 10.1763H410.316C414.163 10.1763 417.282 13.2946 417.282 17.1432V24.1102H256.659V17.1432Z" fill="#E1E5F0"/>
</svg>
